<svg id="Layer_1" data-name="Layer 1" xmlns="http://www.w3.org/2000/svg" xmlns:xlink="http://www.w3.org/1999/xlink" viewBox="0 0 350 350"><defs><style>.cls-1,.cls-10,.cls-11,.cls-12,.cls-13,.cls-4,.cls-5,.cls-6,.cls-7,.cls-8,.cls-9{fill:none;}.cls-2{fill:#d3d3d3;}.cls-3{fill:url(#New_Pattern_Swatch_15);}.cls-13,.cls-4{stroke:#262626;}.cls-10,.cls-11,.cls-12,.cls-13,.cls-4,.cls-5,.cls-6,.cls-7,.cls-8,.cls-9{stroke-miterlimit:10;stroke-width:2px;}.cls-11,.cls-5{stroke:#cf5755;}.cls-12,.cls-6{stroke:#006f8b;}.cls-7,.cls-9{stroke:#54c3bb;}.cls-10,.cls-8{stroke:#fcaf17;}.cls-10,.cls-11,.cls-12,.cls-13,.cls-9{stroke-linecap:round;}</style><pattern id="New_Pattern_Swatch_15" data-name="New Pattern Swatch 15" width="7.27" height="7.27" patternTransform="translate(-27.35 -183.94) scale(1.2)" patternUnits="userSpaceOnUse" viewBox="0 0 7.27 7.27"><rect class="cls-1" width="7.27" height="7.27"/><rect class="cls-1" width="7.27" height="7.27"/><rect class="cls-2" x="2.93" y="2.93" width="1.4" height="1.4"/></pattern></defs><circle class="cls-3" cx="175" cy="175" r="161" transform="translate(-53.65 269.71) rotate(-67.5)"/><polyline class="cls-4" points="95.79 196.29 207.95 196.29 207.95 232.75 286.47 175 207.95 117.25 207.95 153.7 78.15 153.7 78.15 196.29 95.79 196.29"/><path class="cls-4" d="M95.79,153.7a82,82,0,0,1,157.52-3.09"/><circle class="cls-5" cx="111.84" cy="61.84" r="7.76"/><circle class="cls-6" cx="286.47" cy="148.63" r="5.74"/><circle class="cls-7" cx="175" cy="298.14" r="5.74"/><circle class="cls-7" cx="68.65" cy="148.63" r="5.74"/><circle class="cls-8" cx="268.15" cy="234.98" r="5.74"/><line class="cls-9" x1="173.36" y1="81" x2="173.36" y2="37.09"/><line class="cls-10" x1="77.41" y1="92.74" x2="70.43" y2="86.65"/><line class="cls-9" x1="283.15" y1="242.78" x2="290.92" y2="247.83"/><line class="cls-10" x1="294.36" y1="129.78" x2="303.07" y2="126.64"/><line class="cls-11" x1="127.92" y1="293.63" x2="124.36" y2="302.19"/><line class="cls-11" x1="231.48" y1="278.58" x2="240.27" y2="295.68"/><line class="cls-11" x1="244.07" y1="111.22" x2="255.45" y2="101.07"/><line class="cls-12" x1="123.24" y1="253.49" x2="114.63" y2="266.07"/><line class="cls-11" x1="77.25" y1="228.55" x2="48.16" y2="241.41"/><line class="cls-10" x1="284.41" y1="196.28" x2="315" y2="204.98"/><path class="cls-4" d="M253.2,199.73a82,82,0,0,1-157.41-3.44"/><line class="cls-13" x1="93.79" y1="175" x2="249.76" y2="175"/></svg>