<svg id="Layer_1" data-name="Layer 1" xmlns="http://www.w3.org/2000/svg" xmlns:xlink="http://www.w3.org/1999/xlink" viewBox="0 0 350 350"><defs><style>.cls-1,.cls-10,.cls-11,.cls-12,.cls-4,.cls-5,.cls-6,.cls-7,.cls-8,.cls-9{fill:none;}.cls-2{fill:#161616;}.cls-3{fill:url(#New_Pattern_Swatch_14);}.cls-10,.cls-4{stroke:#fcaf17;}.cls-10,.cls-11,.cls-12,.cls-4,.cls-5,.cls-6,.cls-7,.cls-8,.cls-9{stroke-miterlimit:10;stroke-width:2px;}.cls-11,.cls-5{stroke:#cf5755;}.cls-12,.cls-6{stroke:#006f8b;}.cls-7,.cls-9{stroke:#54c3bb;}.cls-8{stroke:#fff;}.cls-10,.cls-11,.cls-12,.cls-8,.cls-9{stroke-linecap:round;}</style><pattern id="New_Pattern_Swatch_14" data-name="New Pattern Swatch 14" width="12.48" height="12.47" patternTransform="translate(-18.79 292.14)" patternUnits="userSpaceOnUse" viewBox="0 0 12.48 12.47"><rect class="cls-1" width="12.48" height="12.47"/><rect class="cls-1" width="12.48" height="12.47"/><rect class="cls-2" x="5.04" y="5.03" width="2.4" height="2.41"/></pattern></defs><circle class="cls-3" cx="175" cy="175" r="161"/><circle class="cls-4" cx="180.74" cy="175" r="82"/><circle class="cls-5" cx="117.58" cy="61.84" r="7.76"/><circle class="cls-6" cx="292.21" cy="148.63" r="5.74"/><circle class="cls-7" cx="180.74" cy="298.14" r="5.74"/><circle class="cls-7" cx="74.39" cy="148.63" r="5.74"/><circle class="cls-4" cx="273.89" cy="234.98" r="5.74"/><line class="cls-8" x1="118.46" y1="154.8" x2="153.48" y2="195.2"/><line class="cls-8" x1="118.46" y1="195.2" x2="153.48" y2="154.8"/><line class="cls-8" x1="164.59" y1="154.8" x2="199.61" y2="195.2"/><line class="cls-8" x1="164.59" y1="195.2" x2="199.61" y2="154.8"/><polyline class="cls-8" points="243.02 154.91 225.66 193.89 208.3 154.91"/><line class="cls-9" x1="179.1" y1="81" x2="179.1" y2="37.09"/><line class="cls-10" x1="83.15" y1="92.74" x2="76.17" y2="86.65"/><line class="cls-9" x1="288.89" y1="242.78" x2="296.66" y2="247.83"/><line class="cls-10" x1="300.1" y1="129.78" x2="308.81" y2="126.64"/><line class="cls-11" x1="133.66" y1="293.64" x2="130.1" y2="302.19"/><line class="cls-8" x1="237.22" y1="278.58" x2="246.01" y2="295.68"/><line class="cls-11" x1="249.81" y1="111.22" x2="261.19" y2="101.07"/><line class="cls-12" x1="128.98" y1="253.49" x2="120.37" y2="266.07"/><line class="cls-11" x1="82.99" y1="228.55" x2="53.9" y2="241.41"/><line class="cls-10" x1="290.15" y1="196.28" x2="320.74" y2="204.98"/><line class="cls-10" x1="91.37" y1="195.53" x2="76.41" y2="198.49"/></svg>