<svg xmlns="http://www.w3.org/2000/svg" xmlns:xlink="http://www.w3.org/1999/xlink" viewBox="0 0 703.37 363.15"><defs><style>.cls-1{fill:none;}.cls-2{fill:#262626;}.cls-3{fill:#161616;}.cls-4,.cls-8{fill:#fcaf17;}.cls-5{fill:#006f8b;}.cls-6{fill:#cf5755;}.cls-7{fill:url(#New_Pattern_Swatch_2);}.cls-8{fill-rule:evenodd;}.cls-9{fill:url(#New_Pattern_Swatch_1);}</style><pattern id="New_Pattern_Swatch_2" data-name="New Pattern Swatch 2" width="12.48" height="12.47" patternTransform="matrix(0.71, -0.71, -0.71, -0.71, -55.41, 630.8)" patternUnits="userSpaceOnUse" viewBox="0 0 12.48 12.47"><rect class="cls-1" width="12.48" height="12.47"/><rect class="cls-1" width="12.48" height="12.47"/><rect class="cls-1" width="12.48" height="12.47"/><rect class="cls-3" x="5.04" y="5.03" width="2.4" height="2.41"/></pattern><pattern id="New_Pattern_Swatch_1" data-name="New Pattern Swatch 1" width="12.48" height="12.47" patternTransform="matrix(0.92, -0.38, -0.38, -0.92, -70.12, 839.66)" patternUnits="userSpaceOnUse" viewBox="0 0 12.48 12.47"><rect class="cls-1" width="12.48" height="12.47"/><rect class="cls-1" width="12.48" height="12.47"/><rect class="cls-2" width="12.48" height="12.47"/><rect class="cls-3" x="5.04" y="5.03" width="2.4" height="2.41"/></pattern></defs><g id="Layer_2" data-name="Layer 2"><g id="Layer_1-2" data-name="Layer 1"><path class="cls-4" d="M4.45,25.23H2.33v4.68H.42v-12h4c2.36,0,3.22,1.27,3.22,3.06v1.18C7.67,24,6.83,25.23,4.45,25.23Zm1.3-4.29c0-.88-.31-1.42-1.28-1.42H2.33v4.12H4.47c1,0,1.28-.56,1.28-1.44Z"/><path class="cls-4" d="M18.67,30.05c-1.58,0-2.12-.43-2.12-1.8v-2c0-.94-.42-1.57-1.45-1.57h-2v5.19H11.19v-12h4c2.36,0,3.22,1.17,3.22,3v.81A2,2,0,0,1,16.76,24l-.19,0a2.12,2.12,0,0,1,1.89,2.27v1.88c0,.32.18.46.6.46v1.48Zm-2.2-9.2c0-.76-.3-1.33-1.29-1.33H13.05v3.81H15a1.36,1.36,0,0,0,1.5-1.19,1.38,1.38,0,0,0,0-.35Z"/><path class="cls-4" d="M26,30.21A3.55,3.55,0,0,1,22.12,27a4.21,4.21,0,0,1,0-.71V21.5a3.88,3.88,0,0,1,7.75,0v4.82a3.53,3.53,0,0,1-3.13,3.89A3.05,3.05,0,0,1,26,30.21Zm2-8.84a2,2,0,1,0-3.91-.84,2,2,0,0,0,0,.84v5.08a2,2,0,1,0,3.91.84,2,2,0,0,0,0-.84Z"/><path class="cls-4" d="M37.75,25.23H35.62v4.68h-1.9v-12h4c2.36,0,3.22,1.27,3.22,3.06v1.18C41,24,40.11,25.23,37.75,25.23Zm1.3-4.29c0-.88-.31-1.42-1.28-1.42H35.62v4.12h2.15c1,0,1.28-.56,1.28-1.44Z"/><path class="cls-4" d="M44.44,29.91v-12h6.49v1.71H46.35v3.15h3.3v1.62h-3.3v3.8h4.58V29.9Z"/><path class="cls-4" d="M62,30.05c-1.59,0-2.13-.43-2.13-1.8v-2c0-.94-.41-1.57-1.44-1.57h-2v5.19H54.43v-12h4c2.35,0,3.22,1.17,3.22,3v.81A2,2,0,0,1,60,24l-.17,0a2.12,2.12,0,0,1,1.89,2.27v1.88c0,.32.18.46.6.46v1.48Zm-2.2-9.2c0-.76-.3-1.33-1.29-1.33H56.34v3.81h1.93a1.36,1.36,0,0,0,1.5-1.19,1.38,1.38,0,0,0,0-.35Z"/><path class="cls-4" d="M69.54,19.64V29.91H67.63V19.64H64.71V17.92h7.74v1.72Z"/><path class="cls-4" d="M80.08,25.05v4.86h-1.9V25.05l-3.42-7.13h2.07l2.31,5.49,2.32-5.49h1.93Z"/><path class="cls-4" d="M95.06,30.21A3.54,3.54,0,0,1,91.19,27a3.47,3.47,0,0,1,0-.72V21.5a3.87,3.87,0,0,1,7.74,0v4.82a3.53,3.53,0,0,1-3.13,3.89A3.05,3.05,0,0,1,95.06,30.21Zm2-8.84a2,2,0,0,0-3.9-.89,1.91,1.91,0,0,0,0,.89v5.08a2,2,0,0,0,3.9.89,1.91,1.91,0,0,0,0-.89Z"/><path class="cls-4" d="M111.83,29.91H110l-1.8-8.5-1.91,8.5h-1.87l-2.49-12h2l1.5,9,2-9h1.78l1.84,9,1.51-9h1.91Z"/><path class="cls-4" d="M123.83,29.91l-3.41-5.76L119.2,22v7.92h-1.8v-12h1.43l3.35,5.83,1.17,2.2v-8h1.8v12Z"/><path class="cls-4" d="M129.22,29.91v-12h6.48v1.71h-4.57v3.15h3.3v1.62h-3.3v3.8h4.57V29.9Z"/><path class="cls-4" d="M146.74,30.05c-1.59,0-2.13-.43-2.13-1.8v-2c0-.94-.41-1.57-1.44-1.57h-2v5.19h-1.91v-12h4c2.35,0,3.22,1.17,3.22,3v.81a2,2,0,0,1-1.65,2.3l-.19,0a2.12,2.12,0,0,1,1.89,2.27v1.88c0,.32.18.46.6.46v1.48Zm-2.2-9.2c0-.76-.3-1.33-1.29-1.33h-2.13v3.81h1.93a1.36,1.36,0,0,0,1.5-1.19,1.38,1.38,0,0,0,0-.35Z"/><path class="cls-4" d="M7.94,51.65c-1.58,0-2.12-.43-2.12-1.8v-2c0-.94-.42-1.57-1.44-1.57h-2v5.19H.47v-12h4c2.36,0,3.22,1.17,3.22,3v.81A2,2,0,0,1,6,45.53l-.18,0a2.12,2.12,0,0,1,1.89,2.27v1.84c0,.32.18.46.59.46V51.6Zm-2.19-9.2a1.16,1.16,0,0,0-1-1.33H2.33v3.82H4.25a1.38,1.38,0,0,0,1.51-1.22,1.22,1.22,0,0,0,0-.33Z"/><path class="cls-4" d="M11.58,51.51v-12h6.48v1.71H13.49v3.15h3.34V46H13.54v3.8h4.57V51.5Z"/><path class="cls-4" d="M28,51.51l-3.44-5.73-1.22-2.2v7.93h-1.8v-12H23l3.35,5.83,1.17,2.2v-8h1.8v12Z"/><path class="cls-4" d="M37.34,41.24V51.51H35.43V41.24H32.51V39.52h7.74v1.72Z"/><path class="cls-4" d="M48.33,51.51l-.77-3.1H44.48l-.74,3.1H41.83l3.17-12h2l3.2,12ZM46,42.11l-1.16,4.72h2.3Z"/><path class="cls-4" d="M53.3,51.51v-12h1.91V49.79h4.46V51.5Z"/><path class="cls-4" d="M75.57,51.65c-1.59,0-2.13-.43-2.13-1.8v-2c0-.94-.41-1.57-1.44-1.57H70v5.19H68.09v-12h4c2.36,0,3.23,1.17,3.23,3v.81a2,2,0,0,1-1.65,2.3l-.19,0a2.12,2.12,0,0,1,1.89,2.27v1.84c0,.32.18.46.6.46V51.6Zm-2.2-9.2a1.16,1.16,0,0,0-1-1.33H70v3.82h1.93a1.36,1.36,0,0,0,1.5-1.21,1.29,1.29,0,0,0,0-.34Z"/><path class="cls-4" d="M79.2,51.51v-12h6.48v1.71H81.11v3.15h3.3V46h-3.3v3.8h4.57V51.5Z"/><path class="cls-4" d="M89.19,51.51v-12H91.1V49.79h4.46V51.5Z"/><path class="cls-4" d="M98.75,51.51v-12h1.91v12Z"/><path class="cls-4" d="M104.69,51.51v-12h6.48v1.71H106.6v3.15h3.29V46H106.6v3.8h4.57V51.5Z"/><path class="cls-4" d="M116.59,41.21v3.47h3.47v1.66h-3.47v5.17h-1.91v-12h6.45v1.71Z"/><path class="cls-4" d="M131.42,41.21v3.47h3.47v1.66h-3.47v5.17h-1.91v-12H136v1.71Z"/><path class="cls-4" d="M143,51.81c-2.27,0-3.87-1.26-3.87-3.47V39.52h1.93V48.3a1.7,1.7,0,0,0,1.45,1.9,1.6,1.6,0,0,0,.49,0c1.35,0,2-.66,2-1.89V39.52h1.91v8.82C146.88,50.55,145.3,51.81,143,51.81Z"/><path class="cls-4" d="M157.36,51.51l-3.44-5.73-1.23-2.2v7.93h-1.8v-12h1.48l3.35,5.83,1.17,2.2v-8h1.8v12Z"/><path class="cls-4" d="M166.65,51.51h-3.93v-12h3.93a3.34,3.34,0,0,1,3.69,2.93,3.88,3.88,0,0,1,0,.59V48a3.34,3.34,0,0,1-3.11,3.55A2.91,2.91,0,0,1,166.65,51.51Zm1.8-8.27a1.78,1.78,0,0,0-1.53-2,1.85,1.85,0,0,0-.47,0h-1.82v8.57h1.85a1.78,1.78,0,0,0,2-1.53,1.85,1.85,0,0,0,0-.47Z"/><path class="cls-4" d="M10.56,91.64V94.8H7.35V91.64C3.49,91.11,1,88.57,1,85.27V84.08h3.4v.56c0,2.61,2,4.09,4.62,4.09S13,87.15,13,85.4C13,80.71,1.54,81.73,1.54,75c0-3.2,2.08-5.74,5.81-6.34v-3.2h3.21V68.6c3.86.59,5.94,3.1,5.94,6.4v.76H13.1v-.23a3.82,3.82,0,0,0-3.62-4,3.25,3.25,0,0,0-.54,0c-2.48,0-3.86,1.28-3.86,3,0,4.16,11.45,3.2,11.45,10.76C16.53,88.6,14.25,91,10.56,91.64Z"/><path class="cls-4" d="M27.52,91.73c-4,0-7.36-2.11-7.36-6.17V84.9h3.4v.43c0,2.15,1.65,3.47,4,3.47,3.14,0,4.33-2,4.33-4.69v-3.6A6.43,6.43,0,0,1,26.6,83c-4.12,0-6.46-2.64-6.46-6V75.4c0-3.86,2.73-6.86,7.42-6.86,4.95,0,7.76,3,7.76,7.66v7.69C35.34,88.4,32.73,91.73,27.52,91.73Zm4.31-16.17a4,4,0,0,0-3.9-4.1h-.39c-2.61,0-4.06,1.39-4.06,3.66v1.32c0,2.41,1.39,3.8,4,3.8a4.18,4.18,0,0,0,4.32-2.94Z"/><path class="cls-4" d="M47,91.73C42,91.73,39,88.33,39,84.08V76.15c0-4.29,3-7.66,8.05-7.66s8,3.37,8,7.66v7.92C55,88.33,52.07,91.73,47,91.73ZM51.57,76a4.56,4.56,0,0,0-9.11,0v8.19a4.56,4.56,0,0,0,9.11,0Z"/><path class="cls-4" d="M65.63,91.73c-4.16,0-7-2.67-7-6.13v-.73H62V85c0,2.48,1.15,3.76,3.66,3.76,2.81,0,4.06-1.32,4.06-3.73V82.46c0-2.08-1.22-3.3-3.59-3.3a5.38,5.38,0,0,0-4.59,2.64l-2.74-.65.76-12H73c-.19,2.24-.82,3.13-3.16,3.13H62.43L62,78.52a6.32,6.32,0,0,1,5-2.15c4,0,6.14,2.38,6.14,5.68v3.17C73.16,89,70.28,91.73,65.63,91.73Z"/><path class="cls-4" d="M76,94.8V93.71a2.29,2.29,0,0,0,2.35-2.6H76.88V87.25h3.27v3.43a3.79,3.79,0,0,1-3.43,4.12A4.09,4.09,0,0,1,76,94.8Z"/><path class="cls-4" d="M92.1,91.73c-4.82,0-7.79-3.13-7.79-7.62V76.49c0-4.69,3.13-8,7.92-8,4,0,7.26,2.28,7.26,6.17v.53h-3.4v-.3c0-2-1.55-3.43-3.93-3.43-3,0-4.45,1.85-4.45,4.78v3.57A7.21,7.21,0,0,1,93.25,77a5.84,5.84,0,0,1,6.23,5.42,5.66,5.66,0,0,1,0,.58v1.85C99.49,88.8,96.83,91.73,92.1,91.73Zm4-8.18a3.57,3.57,0,0,0-3.25-3.86,3.42,3.42,0,0,0-.64,0,4.54,4.54,0,0,0-4.46,3.17v1.78a4.14,4.14,0,0,0,4.12,4.16H92c2.51,0,4.06-1.46,4.06-3.47Z"/><path class="cls-4" d="M110.28,91.73c-4.85,0-7.63-2.54-7.63-6V84.57A4.73,4.73,0,0,1,106.12,80a4.68,4.68,0,0,1-3.27-4.59v-.86c0-3.43,2.54-6,7.43-6s7.39,2.61,7.39,6v.86A4.63,4.63,0,0,1,114.4,80a4.75,4.75,0,0,1,3.47,4.62v1.16C117.83,89.15,115.13,91.73,110.28,91.73Zm4.26-7.26c0-1.55-1.39-3.26-4.26-3.26S106,82.92,106,84.47v.93c0,2.14,1.68,3.4,4.29,3.4s4.26-1.26,4.26-3.4Zm-.1-9.67c0-2-1.55-3.4-4.16-3.4s-4.19,1.36-4.19,3.4v.76c0,1.55,1.35,3.27,4.19,3.27s4.16-1.72,4.16-3.27Z"/><path class="cls-4" d="M124.67,87.87h11v3.28H120.94v-1.5c0-9.37,11.45-9.6,11.45-14.78,0-1.88-1.26-3.4-3.86-3.4-2.12,0-3.44,1.25-3.44,3.63v1.15h-3.4V74.87c0-3.4,2.38-6.37,6.84-6.37,4.88,0,7.26,3.07,7.26,6.27C135.83,81.15,125.69,82.29,124.67,87.87Z"/><path class="cls-4" d="M6.57,119.73c-1.6,1.35-1.92,2.13-1.92,2.85H10v3.57H0v-1c0-2.75,1-4.68,3.9-7.5,1.87-1.78,2.42-2.8,2.42-3.7s-.42-1.32-1.17-1.32S4,113.13,4,114v1.2H.32v-1.77A4.38,4.38,0,0,1,4.74,109h.31c3.77,0,5.07,2.3,5.07,4.85C10.07,115.68,9.47,117.28,6.57,119.73Z"/><path class="cls-4" d="M16.35,126.53a4.38,4.38,0,0,1-4.71-4c0-.11,0-.23,0-.35v-1.47H15.3v1c0,.85.45,1.27,1.17,1.27a1,1,0,0,0,1.15-.83,1.4,1.4,0,0,0,0-.29V120c0-.57-.27-.8-.77-.8H15.47v-2.9h1.36a.69.69,0,0,0,.77-.6.61.61,0,0,0,0-.19v-1.78a1,1,0,0,0-.86-1.12.94.94,0,0,0-.29,0c-.72,0-1.17.42-1.17,1.27v1H11.63v-1.5A4.38,4.38,0,0,1,16,109h.32c3.15,0,5.3,1.77,5.3,4.47v1a2.93,2.93,0,0,1-2.33,3.17,3,3,0,0,1,2.33,3.15V122C21.65,124.76,19.5,126.53,16.35,126.53Z"/><path class="cls-4" d="M23,126.15v-3.83h3.2v3.83Z"/><path class="cls-4" d="M34.22,119.73c-1.6,1.35-1.92,2.13-1.92,2.85h5.35v3.57h-10v-1c0-2.75,1-4.68,3.9-7.5,1.87-1.78,2.42-2.8,2.42-3.7s-.42-1.32-1.17-1.32-1.15.5-1.15,1.32v1.2H28v-1.77A4.38,4.38,0,0,1,32.39,109h.31c3.77,0,5.07,2.3,5.07,4.85C37.72,115.68,37.12,117.28,34.22,119.73Z"/><path class="cls-4" d="M42.12,117.73a2.63,2.63,0,0,1-2.8-2.45,1.71,1.71,0,0,1,0-.32v-3.12a2.82,2.82,0,0,1,5.63,0V115a2.63,2.63,0,0,1-2.48,2.77Zm-.57,9-1.28-.92,11.35-16.87,1.28,1ZM43,111.44a.89.89,0,1,0-1.77-.19.61.61,0,0,0,0,.19v3.92a.89.89,0,1,0,1.77.19.61.61,0,0,0,0-.19Zm8,15.09A2.67,2.67,0,0,1,48.2,124v-3.41a2.83,2.83,0,0,1,5.65,0v3.12a2.65,2.65,0,0,1-2.51,2.8,1.71,1.71,0,0,1-.32,0Zm.9-6.32a.86.86,0,0,0-.82-.9H51a.84.84,0,0,0-.87.81v4a.87.87,0,0,0,.81.93H51a.89.89,0,0,0,.9-.88v-4Z"/><path class="cls-5" d="M538.61,32V42.28H536.7V32h-2.87V30.28h7.74V32Z"/><path class="cls-5" d="M544.67,42.28v-12h6.49V32h-4.58v3.16h3.3v1.62h-3.3v3.8h4.58v1.71Z"/><path class="cls-5" d="M558.36,42.58a3.57,3.57,0,0,1-3.87-3.24,2.79,2.79,0,0,1,0-.5V33.72A3.55,3.55,0,0,1,557.84,30a3,3,0,0,1,.52,0c2.7,0,3.79,1.58,3.79,3.51v1h-1.72v-.85a2,2,0,0,0-4-.09v5.49a2,2,0,1,0,4-.1v-.85h1.72v1C562.15,41,561.06,42.58,558.36,42.58Z"/><path class="cls-5" d="M571.69,42.28V37.05h-4.08v5.23H565.7v-12h1.91v5.08h4.08V30.28h1.91v12Z"/><path class="cls-5" d="M586.11,42.58c-2.27,0-3.78-1.44-3.78-3.36v-.58h1.89v.2c0,1.44.67,2.12,2,2.12A1.64,1.64,0,0,0,588,39.5a2.44,2.44,0,0,0,0-.27c0-1-.48-1.53-2.29-2.36-1.6-.73-3.22-1.69-3.22-3.6A3.29,3.29,0,0,1,585.81,30l.33,0c2.27,0,3.73,1.42,3.73,3.36v.47H588v-.2a1.82,1.82,0,0,0-1.63-2,1.08,1.08,0,0,0-.31,0,1.46,1.46,0,0,0-1.63,1.25,1.93,1.93,0,0,0,0,.24c0,1,.5,1.39,2.56,2.38s3,1.91,3,3.55a3.57,3.57,0,0,1-3.57,3.55Z"/><path class="cls-5" d="M597.41,32V42.28h-1.9V32h-2.92V30.28h7.74V32Z"/><path class="cls-5" d="M608.41,42.28l-.77-3.1h-3.08l-.74,3.1H602l3.17-12h2l3.21,12Zm-2.34-9.4-1.13,4.71h2.3Z"/><path class="cls-5" d="M620.91,42.42c-1.59,0-2.13-.43-2.13-1.8v-2c0-.94-.41-1.57-1.44-1.57h-2v5.19h-1.91v-12h4c2.36,0,3.22,1.17,3.22,3v.81a2,2,0,0,1-1.65,2.3l-.18,0a2.12,2.12,0,0,1,1.89,2.27v1.84c0,.32.18.46.59.46v1.48Zm-2.2-9.2a1.16,1.16,0,0,0-1-1.33,1.82,1.82,0,0,0-.33,0h-2.12V35.7h1.92a1.36,1.36,0,0,0,1.51-1.2,1.38,1.38,0,0,0,0-.35Z"/><path class="cls-5" d="M628.48,32V42.28h-1.91V32h-2.91V30.28h7.74V32Z"/><path class="cls-5" d="M638.4,42.58c-2.27,0-3.87-1.26-3.87-3.47V30.28h1.92v8.79A1.71,1.71,0,0,0,637.92,41a1.9,1.9,0,0,0,.53,0c1.35,0,2-.66,2-1.89V30.28h1.91v8.87C642.27,41.32,640.69,42.58,638.4,42.58Z"/><path class="cls-5" d="M650.32,37.59h-2.13v4.69h-1.91v-12h4c2.35,0,3.22,1.28,3.22,3.07v1.2C653.54,36.32,652.67,37.59,650.32,37.59Zm1.29-4.28c0-.88-.3-1.42-1.28-1.42h-2.14V36h2.14c1,0,1.28-.56,1.28-1.44Z"/><path class="cls-5" d="M538,64.15c-2.27,0-3.78-1.44-3.78-3.36v-.58h1.89v.2c0,1.44.67,2.12,2,2.12a1.64,1.64,0,0,0,1.82-1.46,2.44,2.44,0,0,0,0-.27c0-1-.48-1.53-2.28-2.36-1.61-.73-3.23-1.69-3.23-3.6a3.29,3.29,0,0,1,3.27-3.29l.33,0c2.27,0,3.73,1.42,3.73,3.36v.47h-1.89v-.2a1.82,1.82,0,0,0-1.63-2,1.08,1.08,0,0,0-.31,0,1.46,1.46,0,0,0-1.63,1.25,1.93,1.93,0,0,0,0,.24c0,1,.51,1.39,2.56,2.38s3,1.91,3,3.55a3.56,3.56,0,0,1-3.58,3.54Z"/><path class="cls-5" d="M549.27,53.61V63.88h-1.91V53.61h-2.92V51.88h7.74v1.73Z"/><path class="cls-5" d="M560.26,63.88l-.77-3.1h-3.08l-.74,3.1h-1.84l3.17-12h2l3.2,12Zm-2.34-9.4-1.09,4.67h2.3Z"/><path class="cls-5" d="M569.37,63.88h-4.14v-12h4c2.36,0,3.17,1.17,3.17,3v.45a2.1,2.1,0,0,1-1.75,2.39h0a2.19,2.19,0,0,1,1.94,2.41V61C572.59,62.71,571.73,63.88,569.37,63.88Zm1.19-9.06c0-.76-.29-1.33-1.28-1.33h-2.12v3.6h1.9a1.35,1.35,0,0,0,1.5-1.18,1,1,0,0,0,0-.35Zm.11,5.29a1.38,1.38,0,0,0-1.5-1.55h-2v3.71h2.23a1.15,1.15,0,0,0,1.28-1,.81.81,0,0,0,0-.31Z"/><path class="cls-5" d="M576.28,63.88v-12h1.91v12Z"/><path class="cls-5" d="M582.22,63.88v-12h1.91V62.15h4.47v1.71Z"/><path class="cls-5" d="M591.83,63.88v-12h1.91v12Z"/><path class="cls-5" d="M599.68,62.15h5v1.73h-7.49v-.83l5.21-9.44h-5V51.88h7.4v.83Z"/><path class="cls-5" d="M613.72,63.88l-.77-3.1h-3.12l-.74,3.1h-1.87l3.17-12h2l3.2,12Zm-2.34-9.4-1.13,4.67h2.3Z"/><path class="cls-5" d="M622.09,53.61V63.88h-1.9V53.61h-2.92V51.88H625v1.73Z"/><path class="cls-5" d="M628.16,63.88v-12h1.91v12Z"/><path class="cls-5" d="M637.83,64.15A3.54,3.54,0,0,1,634,61a3.47,3.47,0,0,1,0-.72V55.44a3.87,3.87,0,0,1,7.74,0v4.82a3.53,3.53,0,0,1-3.13,3.89A3.05,3.05,0,0,1,637.83,64.15Zm2-8.84a2,2,0,1,0-3.91-.84,2,2,0,0,0,0,.84v5.08a2,2,0,1,0,3.91.84,2,2,0,0,0,0-.84Z"/><path class="cls-5" d="M652,63.88l-3.43-5.73L647.31,56v7.93h-1.8v-12H647l3.34,5.84,1.18,2.19v-8h1.8v12Z"/><path class="cls-5" d="M664.43,53.58v3.47h3.47v1.66h-3.47v5.17h-1.91v-12H669v1.71Z"/><path class="cls-5" d="M676,64.15c-2.27,0-3.87-1.26-3.87-3.47V51.85h1.93v8.79a1.7,1.7,0,0,0,1.45,1.9,1.6,1.6,0,0,0,.49,0c1.35,0,2-.66,2-1.89V51.85h1.91v8.83C679.89,62.92,678.31,64.15,676,64.15Z"/><path class="cls-5" d="M690.37,63.88l-3.44-5.73L685.7,56v7.93h-1.8v-12h1.48l3.35,5.84,1.17,2.19v-8h1.8v12Z"/><path class="cls-5" d="M699.65,63.88h-3.92v-12h3.92a3.35,3.35,0,0,1,3.7,2.94,3.88,3.88,0,0,1,0,.59v4.94a3.34,3.34,0,0,1-3.12,3.55A3.88,3.88,0,0,1,699.65,63.88Zm1.8-8.27a1.78,1.78,0,0,0-1.53-2,1.85,1.85,0,0,0-.47,0H697.6v8.54h1.85a1.77,1.77,0,0,0,2-1.5,2.09,2.09,0,0,0,0-.5Z"/><path class="cls-5" d="M544.83,104v3.15h-3.2V104c-3.86-.52-6.4-3.07-6.4-6.37V96.45h3.4V97c0,2.6,2,4.09,4.62,4.09,2.77,0,4.06-1.58,4.06-3.33,0-4.69-11.49-3.67-11.49-10.43,0-3.2,2.08-5.75,5.81-6.34V77.8h3.2V81c3.87.59,5.95,3.1,5.95,6.4v.78h-3.4v-.23a3.82,3.82,0,0,0-3.62-4,3.25,3.25,0,0,0-.54,0c-2.48,0-3.86,1.29-3.86,3,0,4.23,11.47,3.23,11.47,10.78C550.83,101,548.5,103.41,544.83,104Z"/><path class="cls-5" d="M557.67,100.24h11v3.24H553.94V102c0-9.37,11.46-9.6,11.46-14.78,0-1.88-1.26-3.4-3.86-3.4-2.12,0-3.44,1.25-3.44,3.63v1.15h-3.4V87.24c0-3.4,2.38-6.37,6.84-6.37,4.88,0,7.25,3.07,7.25,6.27C568.83,93.51,558.7,94.66,557.67,100.24Z"/><path class="cls-5" d="M571.5,107.15v-1.09a2.29,2.29,0,0,0,2.36-2.22,2.48,2.48,0,0,0,0-.38h-1.48V99.59h3.27V103a3.79,3.79,0,0,1-3.43,4.12A4.09,4.09,0,0,1,571.5,107.15Z"/><path class="cls-5" d="M587.57,104.15c-4.82,0-7.79-3.13-7.79-7.62V88.85a7.56,7.56,0,0,1,7.1-8h.83c4,0,7.25,2.28,7.25,6.17v.53h-3.39v-.3c0-2-1.55-3.43-3.93-3.43-3,0-4.46,1.85-4.46,4.78v3.55a7.26,7.26,0,0,1,5.55-2.77A5.84,5.84,0,0,1,595,94.81a5.42,5.42,0,0,1,0,.57v1.84C595,101.15,592.29,104.15,587.57,104.15Zm4-8.18a3.58,3.58,0,0,0-3.27-3.86,3.21,3.21,0,0,0-.62,0,4.52,4.52,0,0,0-4.46,3.16v1.79a4.12,4.12,0,0,0,4.1,4.16h.19c2.51,0,4.06-1.46,4.06-3.47Z"/><path class="cls-5" d="M610.21,98.15v5.35H607V98.15h-9.94v-2.5l10.37-14.16h2.77V95.15h2.87v3ZM607,86.76l-6,8.42h6Z"/><path class="cls-5" d="M622,103.48h-3.73c.33-6.08,4-13.57,8.49-18.85H615.29V81.49h15.25v2.45C625.65,90,622.52,96,622,103.48Z"/><path class="cls-5" d="M627.76,107.15v-1.09a2.29,2.29,0,0,0,2.35-2.6h-1.49V99.59h3.27V103a3.79,3.79,0,0,1-3.43,4.12A4.09,4.09,0,0,1,627.76,107.15Z"/><path class="cls-5" d="M643.11,104.15c-4.16,0-7-2.67-7-6.14v-.72h3.4v.13c0,2.48,1.15,3.76,3.66,3.76,2.81,0,4.06-1.32,4.06-3.73V94.88c0-2.08-1.22-3.3-3.59-3.3a5.38,5.38,0,0,0-4.59,2.64l-2.74-.69.76-12h13.36c-.19,2.25-.82,3.14-3.16,3.14h-7.33l-.46,6.24a6.28,6.28,0,0,1,5-2.15c4,0,6.14,2.38,6.14,5.68v3.17C650.64,101.4,647.77,104.15,643.11,104.15Z"/><path class="cls-5" d="M661.2,104.15c-4,0-7.37-2.11-7.37-6.17v-.66h3.4v.43c0,2.15,1.65,3.47,4,3.47,3.14,0,4.32-2,4.32-4.69v-3.6a6.4,6.4,0,0,1-5.28,2.51c-4.12,0-6.47-2.64-6.47-6V87.82c0-3.86,2.74-6.86,7.43-6.86,5,0,7.76,3,7.76,7.65V96.3C669,100.77,666.41,104.15,661.2,104.15ZM665.55,88a4,4,0,0,0-3.9-4.1h-.39c-2.61,0-4.06,1.38-4.06,3.66v1.32c0,2.41,1.39,3.8,4,3.8a4.18,4.18,0,0,0,4.32-2.94Z"/><path class="cls-5" d="M678.75,103.48H675c.33-6.08,4-13.57,8.48-18.85H672V81.49h15.25v2.45C682.38,90,679.24,96,678.75,103.48Z"/><path class="cls-5" d="M539.57,138.9c-3.17,0-5.14-2-5.14-4.82v-7.85c0-2.88,2-4.83,5.19-4.83a4.46,4.46,0,0,1,4.79,4.09c0,.08,0,.17,0,.26v1.4h-3.59v-.87c0-.85-.35-1.28-1.17-1.28s-1.25.4-1.25,1.1v3.65a3.28,3.28,0,0,1,2.77-1.35,3.12,3.12,0,0,1,3.46,2.76,3,3,0,0,1,0,.52v2.45C544.7,137,542.72,138.9,539.57,138.9Zm1.1-6.92a1.12,1.12,0,0,0-2.22,0v2.42c0,.55.4.95,1.12.95s1.1-.4,1.1-.95Z"/><path class="cls-5" d="M551.92,138.48h-4.57a22.67,22.67,0,0,1,4.47-12.9h-6v-3.75h10.09v1.67A28.09,28.09,0,0,0,551.92,138.48Z"/><path class="cls-5" d="M555.4,138.48v-3.83h3.2v3.83Z"/><path class="cls-5" d="M565.4,138.9c-3.15,0-5.25-1.77-5.25-4.47v-1.35a3.11,3.11,0,0,1,1.65-3,3.11,3.11,0,0,1-1.65-3v-1.2c0-2.7,2.1-4.48,5.25-4.48s5.25,1.78,5.25,4.48v1.2a3.11,3.11,0,0,1-1.65,3,3.11,3.11,0,0,1,1.65,3v1.35C570.65,137.15,568.57,138.9,565.4,138.9Zm1.22-12.82a1.11,1.11,0,0,0-1.08-1.13.66.66,0,0,0-.14,0,1.14,1.14,0,0,0-1.23,1v2.1a1.13,1.13,0,0,0,1.13,1.15h.1a1.12,1.12,0,0,0,1.22-1v-2.14Zm0,6a1.11,1.11,0,0,0-1.08-1.13h-.14a1.14,1.14,0,0,0-1.23,1v2.25a1.13,1.13,0,0,0,1.11,1.13h.12a1.09,1.09,0,0,0,1.21-1,.76.76,0,0,0,0-.15Z"/><path class="cls-5" d="M575,130.15a2.63,2.63,0,0,1-2.8-2.45,1.71,1.71,0,0,1,0-.32v-3.13a2.82,2.82,0,0,1,5.63,0v3.13a2.63,2.63,0,0,1-2.48,2.77Zm-.57,9-1.28-.92,11.35-16.88,1.28,1Zm1.47-15.25a.89.89,0,0,0-1.77-.19.61.61,0,0,0,0,.19v3.93a.89.89,0,1,0,1.77.19.61.61,0,0,0,0-.19Zm8,15.1a2.67,2.67,0,0,1-2.82-2.51v-3.41a2.83,2.83,0,0,1,5.65,0v3.07a2.65,2.65,0,0,1-2.56,2.75h-.27Zm.9-6.32a.86.86,0,0,0-.82-.9h-.08a.84.84,0,0,0-.87.81v4a.87.87,0,0,0,.81.93h.06a.89.89,0,0,0,.9-.88v-4Z"/><path class="cls-6" d="M58.26,266.67c-2.27,0-3.78-1.44-3.78-3.37v-.57h1.89v.2c0,1.44.67,2.12,1.94,2.12a1.64,1.64,0,0,0,1.83-1.45,1.29,1.29,0,0,0,0-.28c0-1-.49-1.53-2.28-2.36-1.61-.73-3.23-1.69-3.23-3.6a3.29,3.29,0,0,1,3.29-3.29h.31c2.27,0,3.73,1.43,3.73,3.37v.47H60.13v-.2a1.82,1.82,0,0,0-1.63-2,1.08,1.08,0,0,0-.31,0A1.46,1.46,0,0,0,56.56,257a1.93,1.93,0,0,0,0,.24c0,1,.5,1.39,2.56,2.38s3,1.91,3,3.55a3.56,3.56,0,0,1-3.58,3.54Z"/><path class="cls-6" d="M74.17,266.36v-9.47l-.59,2.38-1.91,7.09H69.83L68,259.27l-.6-2.38v9.47H65.67v-12h2.65l1.93,7.53.57,2.39.58-2.41,1.89-7.51h2.64v12Z"/><path class="cls-6" d="M85.39,266.36l-.78-3.09H81.53l-.73,3.09H78.92l3.17-12h2l3.2,12ZM83.05,257l-1.14,4.71h2.31Z"/><path class="cls-6" d="M90.35,266.36v-12h1.91v10.29h4.47v1.71Z"/><path class="cls-6" d="M99.91,266.36v-12h1.92v10.29h4.47v1.71Z"/><path class="cls-6" d="M118.83,266.36h-4.14v-12h4c2.35,0,3.17,1.17,3.17,3v.45a2.1,2.1,0,0,1-1.77,2.39h0a2.2,2.2,0,0,1,2,2.42h0v.81C122,265.15,121.15,266.36,118.83,266.36Zm1.19-9c0-.76-.28-1.33-1.27-1.33h-2.13v3.6h1.91a1.34,1.34,0,0,0,1.49-1.16,1.15,1.15,0,0,0,0-.37Zm.11,5.29a1.36,1.36,0,0,0-1.49-1.55h-2v3.71h2.19a1.13,1.13,0,0,0,1.28-1,1,1,0,0,0,0-.34Z"/><path class="cls-6" d="M129.56,266.67c-2.27,0-3.87-1.26-3.87-3.47v-8.83h1.92v8.78a1.7,1.7,0,0,0,1.48,1.9,1.49,1.49,0,0,0,.47,0c1.35,0,2-.67,2-1.89v-8.79h1.91v8.83C133.43,265.41,131.83,266.67,129.56,266.67Z"/><path class="cls-6" d="M140.74,266.67c-2.27,0-3.79-1.44-3.79-3.37v-.57h1.88v.2c0,1.44.67,2.12,2,2.12a1.64,1.64,0,0,0,1.83-1.45,1.29,1.29,0,0,0,0-.28c0-1-.49-1.53-2.29-2.36-1.6-.73-3.22-1.69-3.22-3.6a3.28,3.28,0,0,1,3.26-3.3l.34,0c2.27,0,3.72,1.43,3.72,3.37v.47h-1.83v-.2a1.83,1.83,0,0,0-1.65-2h-.3a1.45,1.45,0,0,0-1.65,1.21,1.8,1.8,0,0,0,0,.22c0,1,.5,1.39,2.55,2.38s3,1.91,3,3.55a3.56,3.56,0,0,1-3.52,3.6Z"/><path class="cls-6" d="M148.1,266.36v-12H150v12Z"/><path class="cls-6" d="M160.5,266.36l-3.44-5.72-1.22-2.2v7.92H154v-12h1.47l3.35,5.84,1.17,2.19v-8h1.8v12Z"/><path class="cls-6" d="M165.83,266.36v-12h6.48v1.71h-4.57v3.16H171v1.62h-3.3v3.79h4.57v1.71Z"/><path class="cls-6" d="M179.15,266.67c-2.27,0-3.78-1.44-3.78-3.37v-.57h1.89v.2c0,1.44.66,2.12,1.94,2.12A1.64,1.64,0,0,0,181,263.6a1.29,1.29,0,0,0,0-.28c0-1-.49-1.53-2.29-2.36-1.6-.73-3.22-1.69-3.22-3.6a3.28,3.28,0,0,1,3.26-3.3l.34,0c2.27,0,3.73,1.43,3.73,3.37v.47H181v-.2a1.83,1.83,0,0,0-1.65-2h-.3a1.45,1.45,0,0,0-1.62,1.26,1.77,1.77,0,0,0,0,.23c0,1,.5,1.39,2.55,2.38s3,1.91,3,3.55a3.56,3.56,0,0,1-3.58,3.54Z"/><path class="cls-6" d="M189.62,266.67c-2.27,0-3.78-1.44-3.78-3.37v-.57h1.89v.2c0,1.44.67,2.12,2,2.12a1.64,1.64,0,0,0,1.82-1.46,2.44,2.44,0,0,0,0-.27c0-1-.48-1.53-2.28-2.36-1.61-.73-3.23-1.69-3.23-3.6a3.3,3.3,0,0,1,3.28-3.3l.33,0a3.39,3.39,0,0,1,3.7,3c0,.11,0,.22,0,.33v.47h-1.83v-.2a1.83,1.83,0,0,0-1.65-2h-.3A1.46,1.46,0,0,0,188,257a1.93,1.93,0,0,0,0,.24c0,1,.51,1.39,2.56,2.38s3,1.91,3,3.55a3.57,3.57,0,0,1-3.57,3.55Z"/><path class="cls-6" d="M55,288V276h1.86v10.29H61.3V288Z"/><path class="cls-6" d="M68,288.27a3.55,3.55,0,0,1-3.88-3.18,4.21,4.21,0,0,1,0-.71v-4.82a3.88,3.88,0,0,1,7.75,0v4.82a3.53,3.53,0,0,1-3.13,3.89A3.05,3.05,0,0,1,68,288.27Zm2-8.84a2,2,0,1,0-3.91-.84,2,2,0,0,0,0,.84v5.08a2,2,0,1,0,3.91.84,2,2,0,0,0,0-.84Z"/><path class="cls-6" d="M81.14,288l-.77-3.09H77.29L76.55,288H74.68l3.16-12h2l3.21,12Zm-2.31-9.39-1.14,4.71H80Z"/><path class="cls-6" d="M92.57,288l-3.44-5.72L87.91,280V288h-1.8V276h1.47l3.35,5.84L92.1,284v-8h1.8v12Z"/><path class="cls-6" d="M110.64,288.15c-1.58,0-2.12-.43-2.12-1.8v-2c0-.94-.42-1.57-1.44-1.57H105V288h-1.9V276h4c2.36,0,3.22,1.17,3.22,3v.81a2,2,0,0,1-1.65,2.3l-.18,0a2.12,2.12,0,0,1,1.89,2.27v1.79c0,.33.18.47.59.47v1.53Zm-2.19-9.2a1.16,1.16,0,0,0-1-1.33H105v3.81H107a1.36,1.36,0,0,0,1.51-1.2,1.38,1.38,0,0,0,0-.35Z"/><path class="cls-6" d="M114.28,288V276h6.48v1.71h-4.58v3.15h3.3v1.63h-3.3v3.79h4.58V288Z"/><path class="cls-6" d="M124.27,288V276h1.9v10.29h4.47V288Z"/><path class="cls-6" d="M133.83,288V276h1.91v12Z"/><path class="cls-6" d="M139.76,288V276h6.49v1.71h-4.58v3.15H145v1.63h-3.3v3.79h4.58V288Z"/><path class="cls-6" d="M151.66,277.67v3.48h3.48v1.66h-3.48V288h-1.91V276h6.45v1.71Z"/><path class="cls-6" d="M65.1,328.09v3.17H61.9v-3.17c-3.86-.52-6.4-3.07-6.4-6.37v-1.19h3.4v.62c0,2.6,2.05,4.09,4.62,4.09,2.77,0,4.06-1.59,4.06-3.33,0-4.69-11.49-3.67-11.49-10.43,0-3.21,2.08-5.75,5.81-6.34v-3.2h3.2v3.17c3.87.59,5.94,3.1,5.94,6.4v.76H67.65V312A3.82,3.82,0,0,0,64,308a3.25,3.25,0,0,0-.54,0c-2.48,0-3.87,1.29-3.87,3,0,4.16,11.46,3.2,11.46,10.76C71.08,325.06,68.83,327.5,65.1,328.09Z"/><path class="cls-6" d="M81.67,328.15c-4.16,0-7-2.67-7-6.14v-1.38h3.4v.79c0,2.47,1.25,3.76,3.76,3.76s3.7-1.42,3.7-3.43v-1.06c0-1.61-1-3-3.83-3H79.83V315h1.85c2.74,0,3.83-1.32,3.83-3v-.69c0-2.08-1.26-3.43-3.7-3.43a3.4,3.4,0,0,0-3.76,3,3.22,3.22,0,0,0,0,.76v.56h-3.4v-1c0-3.47,2.87-6.14,7-6.14,4.65,0,7.23,2.67,7.23,6.1v.56A4.45,4.45,0,0,1,85,316.29c2.54.6,3.86,2.22,3.86,4.49v1.32C88.9,325.42,86.32,328.15,81.67,328.15Z"/><path class="cls-6" d="M99.23,328.15c-4.16,0-7-2.67-7-6.14v-.72h3.4v.13c0,2.47,1.15,3.76,3.66,3.76,2.8,0,4.06-1.32,4.06-3.73v-2.57c0-2.08-1.22-3.3-3.6-3.3a5.4,5.4,0,0,0-4.59,2.64l-2.74-.7.76-12h13.37c-.2,2.25-.83,3.14-3.17,3.14H96.05l-.46,6.24a6.32,6.32,0,0,1,5-2.15c4,0,6.14,2.38,6.14,5.68v3.17C106.75,325.49,103.88,328.15,99.23,328.15Z"/><path class="cls-6" d="M116.91,328.15c-4.16,0-7-2.67-7-6.14v-1.38h3.4v.79c0,2.47,1.26,3.76,3.76,3.76s3.7-1.42,3.7-3.43v-1.06c0-1.61-1-3-3.83-3h-1.85V315h1.85c2.74,0,3.83-1.32,3.83-3v-.69c0-2.08-1.25-3.43-3.7-3.43a3.4,3.4,0,0,0-3.76,3,3.22,3.22,0,0,0,0,.76v.56h-3.4v-1c0-3.47,2.87-6.14,7-6.14,4.66,0,7.23,2.67,7.23,6.1v.56a4.45,4.45,0,0,1-3.86,4.62c2.54.6,3.86,2.22,3.86,4.49v1.32C124.14,325.42,121.57,328.15,116.91,328.15Z"/><path class="cls-6" d="M127,331.26v-1.11a2.29,2.29,0,0,0,2.36-2.22,2.48,2.48,0,0,0,0-.38h-1.52v-3.87h3.27v3.47a3.8,3.8,0,0,1-3.44,4.11A3.53,3.53,0,0,1,127,331.26Z"/><path class="cls-6" d="M142.19,328.15c-4.16,0-7-2.67-7-6.14v-1.38h3.4v.79c0,2.47,1.25,3.76,3.76,3.76s3.7-1.42,3.7-3.43v-1.06c0-1.61-1-3-3.83-3h-1.85V315h1.85c2.74,0,3.83-1.32,3.83-3v-.69c0-2.08-1.26-3.43-3.7-3.43a3.4,3.4,0,0,0-3.76,3,3.22,3.22,0,0,0,0,.76v.56h-3.4v-1c0-3.47,2.87-6.14,7-6.14,4.65,0,7.23,2.67,7.23,6.1v.56a4.45,4.45,0,0,1-3.86,4.62c2.54.6,3.86,2.22,3.86,4.49v1.32C149.42,325.42,146.83,328.15,142.19,328.15Z"/><path class="cls-6" d="M155.88,324.33h11v3.24H152.16v-1.42c0-9.37,11.45-9.6,11.45-14.78,0-1.89-1.26-3.4-3.86-3.4-2.12,0-3.44,1.25-3.44,3.63v1.15h-3.4v-1.38c0-3.4,2.38-6.37,6.84-6.37,4.88,0,7.26,3.07,7.26,6.27C167,317.6,156.91,318.75,155.88,324.33Z"/><path class="cls-6" d="M173.31,324.33h11v3.24H169.58v-1.42c0-9.37,11.45-9.6,11.45-14.78,0-1.89-1.25-3.4-3.86-3.4-2.11,0-3.43,1.25-3.43,3.63v1.15h-3.4v-1.38c0-3.4,2.37-6.37,6.83-6.37,4.88,0,7.26,3.07,7.26,6.27C184.43,317.6,174.33,318.75,173.31,324.33Z"/><path class="cls-6" d="M59.62,363c-3.17,0-4.92-2.25-4.92-4.35v-1h3.52v.42c0,.85.33,1.35,1.33,1.35s1.4-.47,1.4-1.17V355a3.28,3.28,0,0,1-2.78,1.37,3.15,3.15,0,0,1-3.46-2.81,4,4,0,0,1,0-.49v-2.77c0-2.88,2-4.8,5.15-4.8s5.12,1.92,5.12,4.8v7.86C65,361,62.77,363,59.62,363ZM61,350a1,1,0,0,0-1-.95h-.06c-.73,0-1.13.43-1.13.95v2.9c0,.55.4.95,1.13.95s1.1-.4,1.1-.95Z"/><path class="cls-6" d="M69.4,354.15a2.63,2.63,0,0,1-2.8-2.45,1.71,1.71,0,0,1,0-.32v-3.13a2.81,2.81,0,0,1,5.62,0v3.13a2.63,2.63,0,0,1-2.48,2.77A1.93,1.93,0,0,1,69.4,354.15Zm-.57,9-1.27-.93,11.35-16.87,1.27.95Zm1.48-15.25a.89.89,0,0,0-1.78,0h0v3.93a.89.89,0,1,0,1.78,0h0Zm8,15.1a2.67,2.67,0,0,1-2.83-2.5c0-.1,0-.2,0-.3v-3.12a2.83,2.83,0,0,1,5.65,0v3.07A2.66,2.66,0,0,1,78.66,363h-.35Zm.9-6.32a.87.87,0,0,0-.84-.9h-.06a.85.85,0,0,0-.88.82v4a.87.87,0,0,0,.82.92h.06a.89.89,0,0,0,.9-.88v-4Z"/><circle class="cls-7" cx="349.83" cy="157.74" r="157.74" transform="translate(-9.08 293.57) rotate(-45)"/><path class="cls-6" d="M347.22,157.79,268.48,264.6A129.09,129.09,0,0,1,223,204.48Z"/><path class="cls-5" d="M347.22,157.79,285.74,40.2a132.7,132.7,0,1,1,123,235.18c-46.25,24.18-98.23,20.18-140.22-10.78Z"/><path class="cls-8" d="M347.22,157.79,223,204.48c-23.93-63.66,2.46-132.77,62.73-164.28Z"/><circle class="cls-9" cx="349.98" cy="157.86" r="108.51"/></g></g></svg>