<svg id="Layer_1" data-name="Layer 1" xmlns="http://www.w3.org/2000/svg" xmlns:xlink="http://www.w3.org/1999/xlink" viewBox="0 0 900 500"><defs><style>.cls-1{fill:none;}.cls-2{fill:#262626;}.cls-3{fill:#161616;}.cls-4,.cls-8{fill:#fcaf17;}.cls-5{fill:#006f8b;}.cls-6{fill:#cf5755;}.cls-7{fill:url(#New_Pattern_Swatch_2);}.cls-8{fill-rule:evenodd;}.cls-9{fill:url(#New_Pattern_Swatch_1);}</style><pattern id="New_Pattern_Swatch_2" data-name="New Pattern Swatch 2" width="12.48" height="12.47" patternTransform="translate(-18 -25.22)" patternUnits="userSpaceOnUse" viewBox="0 0 12.48 12.47"><rect class="cls-1" width="12.48" height="12.47"/><rect class="cls-1" width="12.48" height="12.47"/><rect class="cls-3" x="5.04" y="5.03" width="2.4" height="2.41"/></pattern><pattern id="New_Pattern_Swatch_1" data-name="New Pattern Swatch 1" width="12.48" height="12.47" patternTransform="translate(-12.67 -25.09)" patternUnits="userSpaceOnUse" viewBox="0 0 12.48 12.47"><rect class="cls-1" width="12.48" height="12.47"/><rect class="cls-2" width="12.48" height="12.47"/><rect class="cls-3" x="5.04" y="5.03" width="2.4" height="2.41"/></pattern></defs><path class="cls-4" d="M104.62,96.08H102.5v4.68h-1.91v-12h4c2.36,0,3.22,1.27,3.22,3.06V93C107.84,94.8,107,96.08,104.62,96.08Zm1.3-4.29c0-.88-.31-1.42-1.28-1.42H102.5v4.12h2.14c1,0,1.28-.56,1.28-1.44Z"/><path class="cls-4" d="M118.84,100.9c-1.58,0-2.12-.43-2.12-1.8v-2c0-.94-.42-1.57-1.45-1.57h-2v5.19h-1.91v-12h4c2.36,0,3.22,1.17,3.22,3v.81a2,2,0,0,1-1.84,2.32,2.12,2.12,0,0,1,1.89,2.27V99c0,.32.18.46.6.46v1.48Zm-2.2-9.2c0-.76-.3-1.33-1.29-1.33h-2.13v3.81h1.93a1.35,1.35,0,0,0,1.49-1.54Z"/><path class="cls-4" d="M126.17,101.06a3.55,3.55,0,0,1-3.88-3.89V92.35a3.88,3.88,0,0,1,7.75,0v4.82A3.53,3.53,0,0,1,126.17,101.06Zm2-8.84a2,2,0,1,0-3.91,0V97.3a2,2,0,1,0,3.91,0Z"/><path class="cls-4" d="M137.92,96.08h-2.13v4.68h-1.9v-12h4c2.36,0,3.22,1.27,3.22,3.06V93C141.14,94.8,140.28,96.08,137.92,96.08Zm1.3-4.29c0-.88-.31-1.42-1.28-1.42h-2.15v4.12h2.15c1,0,1.28-.56,1.28-1.44Z"/><path class="cls-4" d="M144.61,100.76v-12h6.49v1.71h-4.58v3.15h3.3v1.62h-3.3v3.8h4.58v1.71Z"/><path class="cls-4" d="M162.13,100.9c-1.59,0-2.13-.43-2.13-1.8v-2c0-.94-.41-1.57-1.44-1.57h-2.05v5.19H154.6v-12h4c2.35,0,3.22,1.17,3.22,3v.81A2,2,0,0,1,160,94.85a2.12,2.12,0,0,1,1.89,2.27V99c0,.32.18.46.6.46v1.48Zm-2.2-9.2c0-.76-.3-1.33-1.29-1.33h-2.13v3.81h1.93a1.35,1.35,0,0,0,1.49-1.54Z"/><path class="cls-4" d="M169.71,90.49v10.27H167.8V90.49h-2.92V88.77h7.74v1.72Z"/><path class="cls-4" d="M180.25,95.9v4.86h-1.9V95.9l-3.42-7.13H177l2.31,5.49,2.32-5.49h1.93Z"/><path class="cls-4" d="M195.23,101.06a3.54,3.54,0,0,1-3.87-3.89V92.35a3.87,3.87,0,0,1,7.74,0v4.82A3.53,3.53,0,0,1,195.23,101.06Zm2-8.84a2,2,0,1,0-3.9,0V97.3a2,2,0,1,0,3.9,0Z"/><path class="cls-4" d="M212,100.76h-1.87l-1.8-8.5-1.91,8.5h-1.87l-2.49-12h2l1.5,9,2-9h1.78l1.84,9,1.51-9h1.91Z"/><path class="cls-4" d="M224,100.76,220.59,95l-1.22-2.19v7.92h-1.8v-12H219l3.35,5.83,1.17,2.2v-8h1.8v12Z"/><path class="cls-4" d="M229.39,100.76v-12h6.48v1.71H231.3v3.15h3.3v1.62h-3.3v3.8h4.57v1.71Z"/><path class="cls-4" d="M246.91,100.9c-1.59,0-2.13-.43-2.13-1.8v-2c0-.94-.41-1.57-1.44-1.57h-2.05v5.19h-1.91v-12h4c2.35,0,3.22,1.17,3.22,3v.81a2,2,0,0,1-1.84,2.32,2.12,2.12,0,0,1,1.89,2.27V99c0,.32.18.46.6.46v1.48Zm-2.2-9.2c0-.76-.3-1.33-1.29-1.33h-2.13v3.81h1.93a1.35,1.35,0,0,0,1.49-1.54Z"/><path class="cls-4" d="M108.11,122.5c-1.58,0-2.12-.43-2.12-1.8v-2c0-.94-.42-1.57-1.44-1.57h-2v5.19h-1.91v-12h4c2.36,0,3.22,1.17,3.22,2.95v.81a2,2,0,0,1-1.83,2.32,2.12,2.12,0,0,1,1.89,2.27v1.84c0,.32.18.46.59.46v1.48Zm-2.19-9.2a1.16,1.16,0,0,0-1.3-1.33H102.5v3.82h1.92a1.37,1.37,0,0,0,1.5-1.55Z"/><path class="cls-4" d="M111.75,122.36v-12h6.48v1.71h-4.57v3.15H117v1.62h-3.29v3.8h4.57v1.71Z"/><path class="cls-4" d="M128.2,122.36l-3.44-5.73-1.22-2.2v7.93h-1.8v-12h1.47l3.35,5.83,1.17,2.2v-8h1.8v12Z"/><path class="cls-4" d="M137.51,112.09v10.27H135.6V112.09h-2.92v-1.72h7.74v1.72Z"/><path class="cls-4" d="M148.5,122.36l-.77-3.1h-3.08l-.74,3.1H142l3.17-12h2l3.2,12Zm-2.34-9.4L145,117.68h2.3Z"/><path class="cls-4" d="M153.47,122.36v-12h1.91v10.28h4.46v1.71Z"/><path class="cls-4" d="M175.74,122.5c-1.59,0-2.13-.43-2.13-1.8v-2c0-.94-.41-1.57-1.44-1.57h-2v5.19h-1.91v-12h4c2.36,0,3.23,1.17,3.23,2.95v.81a2,2,0,0,1-1.84,2.32,2.12,2.12,0,0,1,1.89,2.27v1.84c0,.32.18.46.6.46v1.48Zm-2.2-9.2a1.16,1.16,0,0,0-1.3-1.33h-2.12v3.82h1.93a1.36,1.36,0,0,0,1.49-1.55Z"/><path class="cls-4" d="M179.37,122.36v-12h6.48v1.71h-4.57v3.15h3.3v1.62h-3.3v3.8h4.57v1.71Z"/><path class="cls-4" d="M189.36,122.36v-12h1.91v10.28h4.46v1.71Z"/><path class="cls-4" d="M198.92,122.36v-12h1.91v12Z"/><path class="cls-4" d="M204.86,122.36v-12h6.48v1.71h-4.57v3.15h3.29v1.62h-3.29v3.8h4.57v1.71Z"/><path class="cls-4" d="M216.76,112.06v3.47h3.47v1.66h-3.47v5.17h-1.91v-12h6.45v1.71Z"/><path class="cls-4" d="M231.59,112.06v3.47h3.47v1.66h-3.47v5.17h-1.91v-12h6.45v1.71Z"/><path class="cls-4" d="M243.18,122.66c-2.27,0-3.87-1.26-3.87-3.47v-8.82h1.93v8.78a1.69,1.69,0,0,0,1.94,1.89c1.35,0,2-.66,2-1.89v-8.78h1.91v8.82C247.05,121.4,245.47,122.66,243.18,122.66Z"/><path class="cls-4" d="M257.53,122.36l-3.44-5.73-1.23-2.2v7.93h-1.8v-12h1.48l3.35,5.83,1.17,2.2v-8h1.8v12Z"/><path class="cls-4" d="M266.82,122.36h-3.93v-12h3.93a3.33,3.33,0,0,1,3.7,3.52v4.94A3.34,3.34,0,0,1,266.82,122.36Zm1.8-8.27a1.78,1.78,0,0,0-2-2H264.8v8.57h1.85a1.78,1.78,0,0,0,2-2Z"/><path class="cls-4" d="M110.73,162.49v3.16h-3.21v-3.16c-3.86-.53-6.4-3.07-6.4-6.37v-1.19h3.4v.56c0,2.61,2,4.09,4.62,4.09,2.77,0,4.06-1.58,4.06-3.33,0-4.69-11.49-3.67-11.49-10.43,0-3.2,2.08-5.74,5.81-6.34v-3.2h3.21v3.17c3.86.59,5.94,3.1,5.94,6.4v.76h-3.4v-.23a3.82,3.82,0,0,0-4.16-4c-2.48,0-3.86,1.28-3.86,3,0,4.16,11.45,3.2,11.45,10.76C116.7,159.45,114.42,161.89,110.73,162.49Z"/><path class="cls-4" d="M127.69,162.58c-4,0-7.36-2.11-7.36-6.17v-.66h3.4v.43c0,2.15,1.65,3.47,4,3.47,3.14,0,4.33-2,4.33-4.69v-3.6a6.44,6.44,0,0,1-5.29,2.51c-4.12,0-6.46-2.64-6.46-6v-1.62c0-3.86,2.73-6.86,7.42-6.86,4.95,0,7.76,3,7.76,7.66v7.69C135.51,159.25,132.9,162.58,127.69,162.58ZM132,146.41a4,4,0,0,0-4.29-4.09c-2.61,0-4.06,1.39-4.06,3.66v1.32c0,2.41,1.39,3.8,4,3.8a4.18,4.18,0,0,0,4.32-2.94Z"/><path class="cls-4" d="M147.19,162.58c-5.05,0-8.05-3.4-8.05-7.65V147c0-4.29,3-7.66,8.05-7.66s8,3.37,8,7.66v7.92C155.21,159.18,152.24,162.58,147.19,162.58Zm4.55-15.71a4.56,4.56,0,0,0-9.11,0v8.19a4.56,4.56,0,0,0,9.11,0Z"/><path class="cls-4" d="M165.8,162.58c-4.16,0-7-2.67-7-6.13v-.73h3.4v.13c0,2.48,1.15,3.76,3.66,3.76,2.81,0,4.06-1.32,4.06-3.73v-2.57c0-2.08-1.22-3.3-3.59-3.3a5.38,5.38,0,0,0-4.59,2.64L159,152l.76-12h13.36c-.19,2.24-.82,3.13-3.16,3.13H162.6l-.46,6.24a6.3,6.3,0,0,1,5.05-2.15c4,0,6.14,2.38,6.14,5.68v3.17C173.33,159.88,170.45,162.58,165.8,162.58Z"/><path class="cls-4" d="M176.19,165.65v-1.09a2.3,2.3,0,0,0,2.35-2.6h-1.49V158.1h3.27v3.43A3.79,3.79,0,0,1,176.19,165.65Z"/><path class="cls-4" d="M192.27,162.58c-4.82,0-7.79-3.13-7.79-7.62v-7.62c0-4.69,3.13-8,7.92-8,4,0,7.26,2.28,7.26,6.17v.53h-3.4v-.3c0-2-1.55-3.43-3.93-3.43-3,0-4.45,1.85-4.45,4.78v3.57a7.22,7.22,0,0,1,5.54-2.77,5.84,5.84,0,0,1,6.24,6v1.85C199.66,159.65,197,162.58,192.27,162.58Zm4-8.18a3.57,3.57,0,0,0-3.89-3.86,4.54,4.54,0,0,0-4.46,3.17v1.78a4.14,4.14,0,0,0,4.29,4.16c2.51,0,4.06-1.46,4.06-3.47Z"/><path class="cls-4" d="M210.45,162.58c-4.85,0-7.63-2.54-7.63-6v-1.16a4.73,4.73,0,0,1,3.47-4.58,4.67,4.67,0,0,1-3.27-4.59v-.86c0-3.43,2.54-6,7.43-6s7.39,2.61,7.39,6v.86a4.64,4.64,0,0,1-3.27,4.55,4.75,4.75,0,0,1,3.47,4.62v1.16C218,160,215.3,162.58,210.45,162.58Zm4.26-7.26c0-1.55-1.39-3.26-4.26-3.26s-4.29,1.71-4.29,3.26v.93c0,2.14,1.68,3.4,4.29,3.4s4.26-1.26,4.26-3.4Zm-.1-9.67c0-2-1.55-3.4-4.16-3.4s-4.19,1.36-4.19,3.4v.76c0,1.55,1.35,3.27,4.19,3.27s4.16-1.72,4.16-3.27Z"/><path class="cls-4" d="M224.84,158.72h10.95V162H221.11V160.5c0-9.37,11.45-9.6,11.45-14.78,0-1.88-1.26-3.4-3.86-3.4-2.12,0-3.44,1.25-3.44,3.63v1.15h-3.4v-1.38c0-3.4,2.38-6.37,6.84-6.37,4.88,0,7.26,3.07,7.26,6.27C236,152,225.86,153.14,224.84,158.72Z"/><path class="cls-4" d="M106.74,190.58c-1.6,1.35-1.92,2.13-1.92,2.85h5.35V197h-10v-1c0-2.75.95-4.68,3.9-7.5,1.87-1.78,2.42-2.8,2.42-3.7s-.42-1.32-1.17-1.32-1.15.5-1.15,1.32V186h-3.68v-1.77a4.39,4.39,0,0,1,4.73-4.35c3.77,0,5.07,2.3,5.07,4.85C110.24,186.53,109.64,188.13,106.74,190.58Z"/><path class="cls-4" d="M116.52,197.38A4.38,4.38,0,0,1,111.8,193v-1.47h3.67v1c0,.85.45,1.27,1.17,1.27a1,1,0,0,0,1.15-1.12v-1.88c0-.57-.27-.8-.77-.8h-1.38v-2.9H117a.69.69,0,0,0,.77-.79v-1.78a1,1,0,0,0-1.15-1.12c-.72,0-1.17.42-1.17,1.27v1H111.8v-1.5a4.38,4.38,0,0,1,4.72-4.35c3.15,0,5.3,1.77,5.3,4.47v.95a2.93,2.93,0,0,1-2.33,3.17,3,3,0,0,1,2.33,3.15v1.28C121.82,195.61,119.67,197.38,116.52,197.38Z"/><path class="cls-4" d="M123.19,197v-3.83h3.2V197Z"/><path class="cls-4" d="M134.39,190.58c-1.6,1.35-1.92,2.13-1.92,2.85h5.35V197h-10v-1c0-2.75,1-4.68,3.9-7.5,1.87-1.78,2.42-2.8,2.42-3.7s-.42-1.32-1.17-1.32-1.15.5-1.15,1.32V186h-3.68v-1.77a4.39,4.39,0,0,1,4.73-4.35c3.77,0,5.07,2.3,5.07,4.85C137.89,186.53,137.29,188.13,134.39,190.58Z"/><path class="cls-4" d="M142.29,188.58a2.63,2.63,0,0,1-2.8-2.77v-3.12a2.82,2.82,0,0,1,5.63,0v3.12A2.63,2.63,0,0,1,142.29,188.58Zm-.57,8.95-1.28-.92,11.35-16.87,1.28.95Zm1.47-15.24a.89.89,0,1,0-1.77,0v3.92a.89.89,0,1,0,1.77,0Zm8,15.09a2.67,2.67,0,0,1-2.82-2.8v-3.12a2.83,2.83,0,0,1,5.65,0v3.12A2.66,2.66,0,0,1,151.19,197.38Zm.9-6.32a.86.86,0,0,0-.9-.9.84.84,0,0,0-.87.9V195a.87.87,0,0,0,.87.93.89.89,0,0,0,.9-.93Z"/><path class="cls-5" d="M638.78,102.86v10.27h-1.91V102.86H634v-1.73h7.74v1.73Z"/><path class="cls-5" d="M644.84,113.13v-12h6.49v1.71h-4.58V106h3.3v1.62h-3.3v3.8h4.58v1.71Z"/><path class="cls-5" d="M658.53,113.43a3.57,3.57,0,0,1-3.88-3.74v-5.12a3.55,3.55,0,0,1,3.88-3.72c2.7,0,3.79,1.58,3.79,3.51v1H660.6v-.85a2,2,0,0,0-4-.09v5.49a2,2,0,0,0,4-.1v-.85h1.72v1C662.32,111.83,661.23,113.43,658.53,113.43Z"/><path class="cls-5" d="M671.86,113.13V107.9h-4.08v5.23h-1.91v-12h1.91v5.08h4.08v-5.08h1.91v12Z"/><path class="cls-5" d="M686.28,113.43c-2.27,0-3.78-1.44-3.78-3.36v-.58h1.89v.2c0,1.44.67,2.12,2,2.12a1.65,1.65,0,0,0,1.83-1.73c0-1-.48-1.53-2.29-2.36-1.6-.73-3.22-1.69-3.22-3.6a3.28,3.28,0,0,1,3.6-3.27c2.27,0,3.73,1.42,3.73,3.36v.47h-1.84v-.2a1.82,1.82,0,0,0-1.94-2,1.45,1.45,0,0,0-1.64,1.49c0,1,.5,1.39,2.56,2.38s3,1.91,3,3.55A3.56,3.56,0,0,1,686.28,113.43Z"/><path class="cls-5" d="M697.58,102.86v10.27h-1.9V102.86h-2.92v-1.73h7.74v1.73Z"/><path class="cls-5" d="M708.58,113.13l-.77-3.1h-3.08l-.74,3.1h-1.87l3.17-12h2l3.21,12Zm-2.34-9.4-1.13,4.71h2.3Z"/><path class="cls-5" d="M721.08,113.27c-1.59,0-2.13-.43-2.13-1.8v-2c0-.94-.41-1.57-1.44-1.57h-2v5.19h-1.91v-12h4c2.36,0,3.22,1.17,3.22,3v.81a2,2,0,0,1-1.83,2.32,2.11,2.11,0,0,1,1.89,2.27v1.84c0,.32.18.46.59.46v1.48Zm-2.2-9.2a1.16,1.16,0,0,0-1.3-1.33h-2.12v3.81h1.92a1.36,1.36,0,0,0,1.5-1.55Z"/><path class="cls-5" d="M728.65,102.86v10.27h-1.91V102.86h-2.91v-1.73h7.74v1.73Z"/><path class="cls-5" d="M738.57,113.43c-2.27,0-3.87-1.26-3.87-3.47v-8.83h1.92v8.79a1.7,1.7,0,0,0,2,1.89c1.35,0,2-.66,2-1.89v-8.79h1.91V110C742.44,112.17,740.86,113.43,738.57,113.43Z"/><path class="cls-5" d="M750.49,108.44h-2.13v4.69h-1.91v-12h4c2.35,0,3.22,1.28,3.22,3.07v1.2C753.71,107.17,752.84,108.44,750.49,108.44Zm1.29-4.28c0-.88-.3-1.42-1.28-1.42h-2.14v4.12h2.14c1,0,1.28-.56,1.28-1.44Z"/><path class="cls-5" d="M638.13,135c-2.27,0-3.78-1.44-3.78-3.36v-.58h1.89v.2c0,1.44.67,2.12,2,2.12a1.65,1.65,0,0,0,1.83-1.73c0-1-.48-1.53-2.28-2.36-1.61-.73-3.23-1.69-3.23-3.6a3.28,3.28,0,0,1,3.6-3.27c2.27,0,3.73,1.42,3.73,3.36v.47H640v-.2a1.82,1.82,0,0,0-1.94-2,1.45,1.45,0,0,0-1.64,1.49c0,1,.51,1.39,2.56,2.38s3,1.91,3,3.55A3.56,3.56,0,0,1,638.13,135Z"/><path class="cls-5" d="M649.44,124.46v10.27h-1.91V124.46h-2.92v-1.73h7.74v1.73Z"/><path class="cls-5" d="M660.43,134.73l-.77-3.1h-3.08l-.74,3.1H654l3.17-12h2l3.2,12Zm-2.34-9.4L657,130h2.3Z"/><path class="cls-5" d="M669.54,134.73H665.4v-12h4c2.36,0,3.17,1.17,3.17,3v.45a2.09,2.09,0,0,1-1.78,2.39,2.19,2.19,0,0,1,1.94,2.43v.81C672.76,133.56,671.9,134.73,669.54,134.73Zm1.19-9.06c0-.76-.29-1.33-1.28-1.33h-2.12v3.6h1.9a1.35,1.35,0,0,0,1.5-1.53Zm.11,5.29a1.36,1.36,0,0,0-1.5-1.55h-2v3.71h2.23a1.15,1.15,0,0,0,1.28-1.31Z"/><path class="cls-5" d="M676.45,134.73v-12h1.91v12Z"/><path class="cls-5" d="M682.39,134.73v-12h1.91V133h4.47v1.71Z"/><path class="cls-5" d="M692,134.73v-12h1.91v12Z"/><path class="cls-5" d="M699.85,133h5v1.73h-7.49v-.83l5.21-9.44H697.6v-1.73H705v.83Z"/><path class="cls-5" d="M713.89,134.73l-.77-3.1H710l-.74,3.1h-1.87l3.17-12h2l3.2,12Zm-2.34-9.4L710.42,130h2.3Z"/><path class="cls-5" d="M722.26,124.46v10.27h-1.9V124.46h-2.92v-1.73h7.74v1.73Z"/><path class="cls-5" d="M728.33,134.73v-12h1.91v12Z"/><path class="cls-5" d="M738,135a3.54,3.54,0,0,1-3.87-3.89v-4.82a3.87,3.87,0,0,1,7.74,0v4.82A3.53,3.53,0,0,1,738,135Zm2-8.84a2,2,0,1,0-3.91,0v5.08a2,2,0,1,0,3.91,0Z"/><path class="cls-5" d="M752.14,134.73,748.71,129l-1.23-2.2v7.93h-1.8v-12h1.48l3.34,5.84,1.18,2.19v-8h1.8v12Z"/><path class="cls-5" d="M764.6,124.43v3.47h3.47v1.66H764.6v5.17h-1.91v-12h6.44v1.71Z"/><path class="cls-5" d="M776.19,135c-2.27,0-3.87-1.26-3.87-3.47v-8.83h1.93v8.79a1.69,1.69,0,0,0,1.94,1.89c1.35,0,2-.66,2-1.89v-8.79h1.91v8.83C780.06,133.77,778.48,135,776.19,135Z"/><path class="cls-5" d="M790.54,134.73,787.1,129l-1.23-2.2v7.93h-1.8v-12h1.48l3.35,5.84,1.17,2.19v-8h1.8v12Z"/><path class="cls-5" d="M799.82,134.73H795.9v-12h3.92a3.34,3.34,0,0,1,3.71,3.53v4.94A3.34,3.34,0,0,1,799.82,134.73Zm1.8-8.27a1.78,1.78,0,0,0-2-2h-1.85V133h1.85a1.77,1.77,0,0,0,2-2Z"/><path class="cls-5" d="M645,174.85V178h-3.2v-3.17c-3.86-.52-6.4-3.07-6.4-6.37V167.3h3.4v.56c0,2.6,2.05,4.09,4.62,4.09,2.77,0,4.06-1.58,4.06-3.33,0-4.69-11.49-3.67-11.49-10.43,0-3.2,2.08-5.75,5.81-6.34v-3.2H645v3.17c3.87.59,5.95,3.1,5.95,6.4V159h-3.4v-.23a3.82,3.82,0,0,0-4.16-4c-2.48,0-3.86,1.29-3.86,3C639.5,162,651,161,651,168.55,651,171.82,648.67,174.26,645,174.85Z"/><path class="cls-5" d="M657.84,171.09h11v3.24H654.11v-1.46c0-9.37,11.46-9.6,11.46-14.78,0-1.88-1.26-3.4-3.86-3.4-2.12,0-3.44,1.25-3.44,3.63v1.15h-3.4v-1.38c0-3.4,2.38-6.37,6.84-6.37,4.88,0,7.25,3.07,7.25,6.27C669,164.36,658.87,165.51,657.84,171.09Z"/><path class="cls-5" d="M671.67,178v-1.09a2.29,2.29,0,0,0,2.34-2.6h-1.48v-3.87h3.27v3.44A3.79,3.79,0,0,1,671.67,178Z"/><path class="cls-5" d="M687.74,175c-4.82,0-7.79-3.13-7.79-7.62V159.7a7.56,7.56,0,0,1,7.93-8c4,0,7.25,2.28,7.25,6.17v.53h-3.39v-.3c0-2-1.55-3.43-3.93-3.43-3,0-4.46,1.85-4.46,4.78V163a7.26,7.26,0,0,1,5.55-2.77,5.84,5.84,0,0,1,6.23,6v1.84C695.13,172,692.46,175,687.74,175Zm4-8.18a3.58,3.58,0,0,0-3.89-3.86,4.52,4.52,0,0,0-4.46,3.16v1.79a4.13,4.13,0,0,0,4.29,4.16c2.51,0,4.06-1.46,4.06-3.47Z"/><path class="cls-5" d="M710.38,169v5.35h-3.2V169h-9.94V166.5l10.37-14.16h2.77V166h2.87v3Zm-3.2-11.39-6,8.42h6Z"/><path class="cls-5" d="M722.19,174.33h-3.73c.33-6.08,4-13.57,8.49-18.85H715.46v-3.14h15.25v2.45C725.82,160.89,722.69,166.83,722.19,174.33Z"/><path class="cls-5" d="M727.93,178v-1.09a2.3,2.3,0,0,0,2.35-2.6h-1.49v-3.87h3.27v3.44A3.79,3.79,0,0,1,727.93,178Z"/><path class="cls-5" d="M743.28,175c-4.16,0-7-2.67-7-6.14v-.72h3.4v.13c0,2.48,1.15,3.76,3.66,3.76,2.81,0,4.06-1.32,4.06-3.73v-2.57c0-2.08-1.22-3.3-3.59-3.3a5.38,5.38,0,0,0-4.59,2.64l-2.74-.69.76-12h13.36c-.19,2.25-.82,3.14-3.16,3.14h-7.33l-.46,6.24a6.3,6.3,0,0,1,5-2.15c4,0,6.14,2.38,6.14,5.68v3.17C750.81,172.25,747.94,175,743.28,175Z"/><path class="cls-5" d="M761.37,175c-4,0-7.37-2.11-7.37-6.17v-.66h3.4v.43c0,2.15,1.65,3.47,4,3.47,3.14,0,4.32-2,4.32-4.69v-3.6a6.4,6.4,0,0,1-5.28,2.51c-4.12,0-6.47-2.64-6.47-6v-1.62c0-3.86,2.74-6.86,7.43-6.86,5,0,7.76,3,7.76,7.65v7.69C769.19,171.62,766.58,175,761.37,175Zm4.35-16.17a4,4,0,0,0-4.29-4.09c-2.61,0-4.06,1.38-4.06,3.66v1.32c0,2.41,1.39,3.8,4,3.8a4.18,4.18,0,0,0,4.32-2.94Z"/><path class="cls-5" d="M778.92,174.33h-3.73c.33-6.08,4-13.57,8.48-18.85H772.19v-3.14h15.25v2.45C782.55,160.89,779.41,166.83,778.92,174.33Z"/><path class="cls-5" d="M639.74,209.75c-3.17,0-5.14-1.95-5.14-4.82v-7.85c0-2.88,2-4.83,5.19-4.83a4.45,4.45,0,0,1,4.8,4.35V198H641v-.87c0-.85-.35-1.28-1.17-1.28s-1.25.4-1.25,1.1v3.65a3.26,3.26,0,0,1,2.77-1.35,3.13,3.13,0,0,1,3.48,3.28v2.45C644.87,207.8,642.89,209.75,639.74,209.75Zm1.1-6.92c0-.55-.4-1-1.1-1s-1.12.4-1.12,1v2.42c0,.55.4.95,1.12.95s1.1-.4,1.1-.95Z"/><path class="cls-5" d="M652.09,209.33h-4.57a22.75,22.75,0,0,1,4.47-12.9h-6v-3.75h10.09v1.67A28.08,28.08,0,0,0,652.09,209.33Z"/><path class="cls-5" d="M655.57,209.33V205.5h3.2v3.83Z"/><path class="cls-5" d="M665.57,209.75c-3.15,0-5.25-1.77-5.25-4.47v-1.35a3.09,3.09,0,0,1,1.65-3,3.11,3.11,0,0,1-1.65-3v-1.2c0-2.7,2.1-4.48,5.25-4.48s5.25,1.78,5.25,4.48v1.2a3.11,3.11,0,0,1-1.65,3,3.09,3.09,0,0,1,1.65,3v1.35C670.82,208,668.74,209.75,665.57,209.75Zm1.22-12.82a1.11,1.11,0,0,0-1.22-1.13,1.13,1.13,0,0,0-1.23,1.13v2a1.14,1.14,0,0,0,1.23,1.15,1.12,1.12,0,0,0,1.22-1.15Zm0,6a1.11,1.11,0,0,0-1.22-1.13,1.13,1.13,0,0,0-1.23,1.13v2.15a1.12,1.12,0,0,0,1.23,1.12,1.1,1.1,0,0,0,1.22-1.12Z"/><path class="cls-5" d="M675.19,201a2.63,2.63,0,0,1-2.8-2.77v-3.13a2.82,2.82,0,0,1,5.63,0v3.13A2.63,2.63,0,0,1,675.19,201Zm-.57,9-1.28-.92,11.35-16.88,1.28,1Zm1.47-15.25a.89.89,0,1,0-1.77,0v3.93a.89.89,0,1,0,1.77,0Zm8,15.1a2.67,2.67,0,0,1-2.82-2.8v-3.12a2.83,2.83,0,0,1,5.65,0V207A2.66,2.66,0,0,1,684.09,209.75Zm.9-6.32a.86.86,0,0,0-.9-.9.84.84,0,0,0-.87.9v3.92a.87.87,0,0,0,.87.93.89.89,0,0,0,.9-.93Z"/><path class="cls-6" d="M158.43,337.52c-2.27,0-3.78-1.44-3.78-3.37v-.57h1.89v.2c0,1.44.67,2.12,1.94,2.12a1.65,1.65,0,0,0,1.84-1.73c0-1-.49-1.53-2.28-2.36-1.61-.73-3.23-1.69-3.23-3.6a3.29,3.29,0,0,1,3.6-3.28c2.27,0,3.73,1.43,3.73,3.37v.47H160.3v-.2a1.82,1.82,0,0,0-1.94-2,1.45,1.45,0,0,0-1.64,1.49c0,1,.5,1.39,2.56,2.38s3,1.91,3,3.55A3.56,3.56,0,0,1,158.43,337.52Z"/><path class="cls-6" d="M174.34,337.21v-9.47l-.59,2.38-1.91,7.09H170l-1.85-7.09-.6-2.38v9.47h-1.71v-12h2.65l1.93,7.53.57,2.39.58-2.41,1.89-7.51h2.64v12Z"/><path class="cls-6" d="M185.56,337.21l-.78-3.09H181.7l-.73,3.09h-1.88l3.17-12h2l3.2,12Zm-2.34-9.39-1.14,4.71h2.31Z"/><path class="cls-6" d="M190.52,337.21v-12h1.91V335.5h4.47v1.71Z"/><path class="cls-6" d="M200.08,337.21v-12H202V335.5h4.47v1.71Z"/><path class="cls-6" d="M219,337.21h-4.14v-12h4c2.35,0,3.17,1.17,3.17,3v.45a2.1,2.1,0,0,1-1.79,2.39,2.2,2.2,0,0,1,1.95,2.43v.81C222.19,336,221.32,337.21,219,337.21Zm1.19-9c0-.76-.28-1.33-1.27-1.33h-2.13v3.6h1.91a1.34,1.34,0,0,0,1.49-1.53Zm.11,5.29c0-1-.5-1.55-1.49-1.55h-2v3.71H219a1.14,1.14,0,0,0,1.28-1.31Z"/><path class="cls-6" d="M229.73,337.52c-2.27,0-3.87-1.26-3.87-3.47v-8.83h1.92V334a1.7,1.7,0,0,0,1.95,1.89c1.35,0,2-.67,2-1.89v-8.79h1.91v8.83C233.6,336.26,232,337.52,229.73,337.52Z"/><path class="cls-6" d="M240.91,337.52c-2.27,0-3.79-1.44-3.79-3.37v-.57H239v.2c0,1.44.67,2.12,2,2.12a1.65,1.65,0,0,0,1.84-1.73c0-1-.49-1.53-2.29-2.36-1.6-.73-3.22-1.69-3.22-3.6a3.28,3.28,0,0,1,3.6-3.28c2.27,0,3.72,1.43,3.72,3.37v.47h-1.83v-.2a1.83,1.83,0,0,0-1.95-2A1.45,1.45,0,0,0,239.2,328c0,1,.5,1.39,2.55,2.38s3,1.91,3,3.55A3.56,3.56,0,0,1,240.91,337.52Z"/><path class="cls-6" d="M248.27,337.21v-12h1.91v12Z"/><path class="cls-6" d="M260.67,337.21l-3.44-5.72-1.22-2.2v7.92h-1.8v-12h1.47l3.35,5.84,1.17,2.19v-8H262v12Z"/><path class="cls-6" d="M266,337.21v-12h6.48v1.71h-4.57v3.16h3.3v1.62h-3.3v3.79h4.57v1.71Z"/><path class="cls-6" d="M279.32,337.52c-2.27,0-3.78-1.44-3.78-3.37v-.57h1.89v.2c0,1.44.66,2.12,1.94,2.12a1.65,1.65,0,0,0,1.84-1.73c0-1-.49-1.53-2.29-2.36-1.6-.73-3.22-1.69-3.22-3.6a3.28,3.28,0,0,1,3.6-3.28c2.27,0,3.73,1.43,3.73,3.37v.47h-1.84v-.2a1.83,1.83,0,0,0-1.95-2,1.45,1.45,0,0,0-1.63,1.49c0,1,.5,1.39,2.55,2.38s3,1.91,3,3.55A3.56,3.56,0,0,1,279.32,337.52Z"/><path class="cls-6" d="M289.79,337.52c-2.27,0-3.78-1.44-3.78-3.37v-.57h1.89v.2c0,1.44.67,2.12,2,2.12a1.65,1.65,0,0,0,1.83-1.73c0-1-.48-1.53-2.28-2.36-1.61-.73-3.23-1.69-3.23-3.6a3.29,3.29,0,0,1,3.61-3.28,3.39,3.39,0,0,1,3.72,3.37v.47h-1.83v-.2a1.83,1.83,0,0,0-1.95-2,1.45,1.45,0,0,0-1.64,1.49c0,1,.51,1.39,2.56,2.38s3,1.91,3,3.55A3.56,3.56,0,0,1,289.79,337.52Z"/><path class="cls-6" d="M155.14,358.81v-12H157V357.1h4.47v1.71Z"/><path class="cls-6" d="M168.21,359.12a3.55,3.55,0,0,1-3.88-3.89v-4.82a3.88,3.88,0,0,1,7.75,0v4.82A3.53,3.53,0,0,1,168.21,359.12Zm2-8.84a2,2,0,1,0-3.91,0v5.08a2,2,0,1,0,3.91,0Z"/><path class="cls-6" d="M181.31,358.81l-.77-3.09h-3.08l-.74,3.09h-1.87l3.16-12h2l3.21,12ZM179,349.42l-1.14,4.71h2.31Z"/><path class="cls-6" d="M192.74,358.81l-3.44-5.72-1.22-2.2v7.92h-1.8v-12h1.47l3.35,5.84,1.17,2.19v-8h1.8v12Z"/><path class="cls-6" d="M210.81,359c-1.58,0-2.12-.43-2.12-1.8v-2c0-.94-.42-1.57-1.44-1.57h-2.06v5.18h-1.9v-12h4c2.36,0,3.22,1.17,3.22,3v.81a2,2,0,0,1-1.83,2.32,2.11,2.11,0,0,1,1.89,2.27V357c0,.33.18.47.59.47V359Zm-2.19-9.2a1.16,1.16,0,0,0-1.3-1.33h-2.13v3.81h1.93a1.36,1.36,0,0,0,1.5-1.55Z"/><path class="cls-6" d="M214.45,358.81v-12h6.48v1.71h-4.58v3.15h3.3v1.63h-3.3v3.79h4.58v1.71Z"/><path class="cls-6" d="M224.44,358.81v-12h1.9V357.1h4.47v1.71Z"/><path class="cls-6" d="M234,358.81v-12h1.91v12Z"/><path class="cls-6" d="M239.93,358.81v-12h6.49v1.71h-4.58v3.15h3.3v1.63h-3.3v3.79h4.58v1.71Z"/><path class="cls-6" d="M251.83,348.52V352h3.48v1.66h-3.48v5.16h-1.91v-12h6.45v1.71Z"/><path class="cls-6" d="M165.27,398.94v3.17h-3.2v-3.17c-3.86-.52-6.4-3.07-6.4-6.37v-1.19h3.4V392c0,2.6,2.05,4.09,4.62,4.09,2.77,0,4.06-1.59,4.06-3.33,0-4.69-11.49-3.67-11.49-10.43,0-3.21,2.08-5.75,5.81-6.34v-3.2h3.2v3.17c3.87.59,5.94,3.1,5.94,6.4v.76h-3.39v-.23a3.82,3.82,0,0,0-4.16-4c-2.48,0-3.87,1.29-3.87,3,0,4.16,11.46,3.2,11.46,10.76C171.25,395.91,169,398.35,165.27,398.94Z"/><path class="cls-6" d="M181.84,399c-4.16,0-7-2.67-7-6.14v-1.38h3.4v.79c0,2.47,1.25,3.76,3.76,3.76s3.7-1.42,3.7-3.43v-1.06c0-1.61-1-3-3.83-3H180v-2.74h1.85c2.74,0,3.83-1.32,3.83-3v-.69c0-2.08-1.26-3.43-3.7-3.43a3.4,3.4,0,0,0-3.76,3.76V383h-3.4V382c0-3.47,2.87-6.14,7-6.14,4.65,0,7.23,2.67,7.23,6.1v.56a4.45,4.45,0,0,1-3.86,4.62c2.54.6,3.86,2.22,3.86,4.49v1.32C189.07,396.27,186.49,399,181.84,399Z"/><path class="cls-6" d="M199.4,399c-4.16,0-7-2.67-7-6.14v-.72h3.4v.13c0,2.47,1.15,3.76,3.66,3.76,2.8,0,4.06-1.32,4.06-3.73v-2.57c0-2.08-1.22-3.3-3.6-3.3a5.4,5.4,0,0,0-4.59,2.64l-2.74-.7.76-12h13.37c-.2,2.25-.83,3.14-3.17,3.14h-7.33l-.46,6.24a6.31,6.31,0,0,1,5.05-2.15c4,0,6.14,2.38,6.14,5.68v3.17C206.92,396.34,204.05,399,199.4,399Z"/><path class="cls-6" d="M217.08,399c-4.16,0-7-2.67-7-6.14v-1.38h3.4v.79c0,2.47,1.26,3.76,3.76,3.76s3.7-1.42,3.7-3.43v-1.06c0-1.61-1-3-3.83-3h-1.85v-2.74h1.85c2.74,0,3.83-1.32,3.83-3v-.69c0-2.08-1.25-3.43-3.7-3.43a3.4,3.4,0,0,0-3.76,3.76V383h-3.4V382c0-3.47,2.87-6.14,7-6.14,4.66,0,7.23,2.67,7.23,6.1v.56a4.45,4.45,0,0,1-3.86,4.62c2.54.6,3.86,2.22,3.86,4.49v1.32C224.31,396.27,221.74,399,217.08,399Z"/><path class="cls-6" d="M227.18,402.11V401a2.29,2.29,0,0,0,2.34-2.6H228v-3.87h3.27V398A3.79,3.79,0,0,1,227.18,402.11Z"/><path class="cls-6" d="M242.36,399c-4.16,0-7-2.67-7-6.14v-1.38h3.4v.79c0,2.47,1.25,3.76,3.76,3.76s3.7-1.42,3.7-3.43v-1.06c0-1.61-1-3-3.83-3h-1.85v-2.74h1.85c2.74,0,3.83-1.32,3.83-3v-.69c0-2.08-1.26-3.43-3.7-3.43a3.4,3.4,0,0,0-3.76,3.76V383h-3.4V382c0-3.47,2.87-6.14,7-6.14,4.65,0,7.23,2.67,7.23,6.1v.56a4.45,4.45,0,0,1-3.86,4.62c2.54.6,3.86,2.22,3.86,4.49v1.32C249.59,396.27,247,399,242.36,399Z"/><path class="cls-6" d="M256.05,395.18h11v3.24H252.33V397c0-9.37,11.45-9.6,11.45-14.78,0-1.89-1.26-3.4-3.86-3.4-2.12,0-3.44,1.25-3.44,3.63v1.15h-3.4v-1.38c0-3.4,2.38-6.37,6.84-6.37,4.88,0,7.26,3.07,7.26,6.27C267.18,388.45,257.08,389.6,256.05,395.18Z"/><path class="cls-6" d="M273.48,395.18h11v3.24H269.75V397c0-9.37,11.45-9.6,11.45-14.78,0-1.89-1.25-3.4-3.86-3.4-2.11,0-3.43,1.25-3.43,3.63v1.15h-3.4v-1.38c0-3.4,2.37-6.37,6.83-6.37,4.88,0,7.26,3.07,7.26,6.27C284.6,388.45,274.5,389.6,273.48,395.18Z"/><path class="cls-6" d="M159.79,433.84c-3.17,0-4.92-2.25-4.92-4.35v-1h3.52v.42c0,.85.33,1.35,1.33,1.35s1.4-.47,1.4-1.17v-3.25a3.29,3.29,0,0,1-2.78,1.37,3.15,3.15,0,0,1-3.47-3.3v-2.77c0-2.88,2-4.8,5.15-4.8s5.12,1.92,5.12,4.8V429C165.14,431.89,162.94,433.84,159.79,433.84Zm1.33-13a1,1,0,0,0-1.1-.95c-.73,0-1.13.43-1.13.95v2.9c0,.55.4.95,1.13.95s1.1-.4,1.1-.95Z"/><path class="cls-6" d="M169.57,425a2.63,2.63,0,0,1-2.8-2.77v-3.13a2.81,2.81,0,0,1,5.62,0v3.13A2.63,2.63,0,0,1,169.57,425ZM169,434l-1.27-.93,11.35-16.87,1.27.95Zm1.48-15.25a.89.89,0,1,0-1.78,0v3.93a.89.89,0,1,0,1.78,0Zm8,15.1a2.67,2.67,0,0,1-2.83-2.8v-3.12a2.83,2.83,0,0,1,5.65,0V431A2.66,2.66,0,0,1,178.47,433.84Zm.9-6.32a.87.87,0,0,0-.9-.9.85.85,0,0,0-.88.9v3.92a.87.87,0,0,0,.88.92.89.89,0,0,0,.9-.92Z"/><circle class="cls-7" cx="450" cy="228.59" r="157.74" transform="translate(-29.84 385.15) rotate(-45)"/><path class="cls-6" d="M447.39,228.64,368.65,335.45a129.19,129.19,0,0,1-45.47-60.12Z"/><path class="cls-5" d="M447.39,228.64,385.91,111.05a132.69,132.69,0,1,1,123,235.18c-46.25,24.18-98.23,20.18-140.22-10.78Z"/><path class="cls-8" d="M447.39,228.64,323.18,275.33c-23.93-63.66,2.46-132.77,62.73-164.28Z"/><circle class="cls-9" cx="450.15" cy="228.71" r="108.51" transform="translate(-53.26 189.67) rotate(-22.5)"/></svg>