<svg xmlns="http://www.w3.org/2000/svg" xmlns:xlink="http://www.w3.org/1999/xlink" viewBox="0 0 764.91 421.09"><defs><style>.cls-1{fill:none;}.cls-2{fill:#262626;}.cls-3{fill:#161616;}.cls-10,.cls-11,.cls-12,.cls-13,.cls-14,.cls-15,.cls-16,.cls-17,.cls-18,.cls-19,.cls-20,.cls-21,.cls-22,.cls-23,.cls-24,.cls-25,.cls-4,.cls-5,.cls-6,.cls-8,.cls-9{isolation:isolate;}.cls-12,.cls-13,.cls-16,.cls-20,.cls-21,.cls-22,.cls-5,.cls-6{font-size:18px;font-family:Knockout-30JuniorWelterwt, Knockout;}.cls-10,.cls-11,.cls-30,.cls-5,.cls-6,.cls-8,.cls-9{fill:#fcaf17;}.cls-12,.cls-16,.cls-22,.cls-5{letter-spacing:0.1em;}.cls-6{letter-spacing:0.04em;}.cls-7{letter-spacing:0.07em;}.cls-10,.cls-14,.cls-17,.cls-18,.cls-23,.cls-24,.cls-8,.cls-9{font-size:33px;font-family:Knockout-31JuniorMiddlewt, Knockout;}.cls-24,.cls-9{letter-spacing:-0.01em;}.cls-10{letter-spacing:-0.05em;}.cls-11,.cls-15,.cls-19,.cls-25{font-size:25px;font-family:Knockout-70FullWelterwt, Knockout;}.cls-12,.cls-13,.cls-14,.cls-15,.cls-29{fill:#cf5755;}.cls-13{letter-spacing:0.09em;}.cls-16,.cls-17,.cls-18,.cls-19,.cls-28{fill:#54c3bb;}.cls-18{letter-spacing:1.01em;}.cls-20,.cls-21,.cls-22,.cls-23,.cls-24,.cls-25,.cls-27{fill:#006f8b;}.cls-20{letter-spacing:0.1em;}.cls-21{letter-spacing:0.08em;}.cls-26{fill:url(#New_Pattern_Swatch_2);}.cls-30{fill-rule:evenodd;}.cls-31{fill:url(#New_Pattern_Swatch_1);}</style><pattern id="New_Pattern_Swatch_2" data-name="New Pattern Swatch 2" width="12.48" height="12.47" patternTransform="matrix(0.16, -0.99, -0.99, -0.16, 102.14, 350.29)" patternUnits="userSpaceOnUse" viewBox="0 0 12.48 12.47"><rect class="cls-1" width="12.48" height="12.47"/><rect class="cls-1" width="12.48" height="12.47"/><rect class="cls-1" width="12.48" height="12.47"/><rect class="cls-3" x="5.04" y="5.03" width="2.4" height="2.41"/></pattern><pattern id="New_Pattern_Swatch_1" data-name="New Pattern Swatch 1" width="12.48" height="12.47" patternTransform="matrix(0.11, -0.99, -0.99, -0.11, 123.76, 343.22)" patternUnits="userSpaceOnUse" viewBox="0 0 12.48 12.47"><rect class="cls-1" width="12.48" height="12.47"/><rect class="cls-1" width="12.48" height="12.47"/><rect class="cls-2" width="12.48" height="12.47"/><rect class="cls-3" x="5.04" y="5.03" width="2.4" height="2.41"/></pattern></defs><g id="Layer_2" data-name="Layer 2"><g id="Layer_1-2" data-name="Layer 1"><g class="cls-4"><text class="cls-5" transform="translate(0 31.61)">REAL ES</text><text class="cls-6" transform="translate(66.98 31.61)">T<tspan class="cls-7" x="8.93" y="0">A</tspan></text><text class="cls-5" transform="translate(86.34 31.61)">TE</text><text class="cls-8" transform="translate(0 71.21)">$7</text><text class="cls-9" transform="translate(35.8 71.21)">0</text><text class="cls-8" transform="translate(55.27 71.21)">,238,2</text><text class="cls-10" transform="translate(142 71.21)">7</text><text class="cls-8" transform="translate(157.08 71.21)">4</text><text class="cls-11" transform="translate(0 106.21)">36.2%</text></g><g class="cls-4"><text class="cls-12" transform="translate(511.71 14.99)">SMALL BUSINE</text><text class="cls-13" transform="translate(632.6 14.99)">S</text><text class="cls-12" transform="translate(643.07 14.99)">S</text><text class="cls-14" transform="translate(511.71 54.59)">$1,643,614</text><text class="cls-15" transform="translate(511.71 89.59)">0.8%</text></g><g class="cls-4"><text class="cls-16" transform="translate(533.27 282.74)">COMMERCIAL &amp; INDUSTRIAL</text><text class="cls-17" transform="translate(533.27 322.34)">$218,250</text><text class="cls-18" transform="translate(660.52 322.34)"> </text><text class="cls-19" transform="translate(533.27 357.34)">0.1%</text></g><g class="cls-4"><text class="cls-20" transform="translate(54.75 340.11)">VENTURE INVESTMEN</text><text class="cls-21" transform="translate(230.66 340.11)">T</text><text class="cls-22" transform="translate(240.31 340.11)">S</text><text class="cls-23" transform="translate(54.75 379.71)">$122</text><text class="cls-23" transform="translate(117.91 379.71)">,</text><text class="cls-23" transform="translate(125.7 379.71)">00</text><text class="cls-24" transform="translate(164.97 379.71)">0</text><text class="cls-23" transform="translate(184.44 379.71)">,</text><text class="cls-23" transform="translate(192.23 379.71)">000</text><text class="cls-25" transform="translate(54.75 414.71)">62.9%</text></g><circle class="cls-26" cx="362.46" cy="191.72" r="157.74"/><path class="cls-27" d="M359.77,191.62l86.06-101a132.69,132.69,0,0,1-172.11,202c-28.67-24.43-44.82-57.42-46.51-95.06Z"/><path class="cls-28" d="M359.77,191.62,444.05,89.13c.4.32,1.39,1.15,1.78,1.49Z"/><path class="cls-29" d="M359.77,191.62l78.8-106.76c2.3,1.7,3.27,2.45,5.48,4.27Z"/><path class="cls-30" d="M359.77,191.62l-132.56,6A132.7,132.7,0,0,1,353.78,59.07h0c32-1.43,59,6.78,84.75,25.8Z"/><circle class="cls-31" cx="362.61" cy="191.84" r="108.51"/></g></g></svg>