<svg id="Layer_1" data-name="Layer 1" xmlns="http://www.w3.org/2000/svg" xmlns:xlink="http://www.w3.org/1999/xlink" viewBox="0 0 900 500"><defs><style>.cls-1{fill:none;}.cls-2{fill:#262626;}.cls-3{fill:#161616;}.cls-12,.cls-14,.cls-16,.cls-4{font-size:18px;font-family:Knockout-30JuniorWelterwt, Knockout;}.cls-25,.cls-4{fill:#fcaf17;}.cls-5{letter-spacing:0.1em;}.cls-6{letter-spacing:0.07em;}.cls-7{letter-spacing:0.1em;}.cls-8{font-size:33px;font-family:Knockout-31JuniorMiddlewt, Knockout;}.cls-9{letter-spacing:-0.01em;}.cls-10{letter-spacing:-0.05em;}.cls-11{font-size:25px;font-family:Knockout-70FullWelterwt, Knockout;}.cls-12,.cls-24{fill:#cf5755;}.cls-13{letter-spacing:0.09em;}.cls-14,.cls-23{fill:#54c3bb;}.cls-15{letter-spacing:1.01em;}.cls-16,.cls-22{fill:#006f8b;}.cls-17{letter-spacing:0.08em;}.cls-18{letter-spacing:0em;}.cls-19{letter-spacing:0em;}.cls-20{letter-spacing:0em;}.cls-21{fill:url(#New_Pattern_Swatch_2);}.cls-25{fill-rule:evenodd;}.cls-26{fill:url(#New_Pattern_Swatch_1);}</style><pattern id="New_Pattern_Swatch_2" data-name="New Pattern Swatch 2" width="12.48" height="12.47" patternTransform="translate(-17.86 -44.3)" patternUnits="userSpaceOnUse" viewBox="0 0 12.48 12.47"><rect class="cls-1" width="12.48" height="12.47"/><rect class="cls-1" width="12.48" height="12.47"/><rect class="cls-3" x="5.04" y="5.03" width="2.4" height="2.41"/></pattern><pattern id="New_Pattern_Swatch_1" data-name="New Pattern Swatch 1" width="12.48" height="12.47" patternTransform="translate(-12.53 -44.18)" patternUnits="userSpaceOnUse" viewBox="0 0 12.48 12.47"><rect class="cls-1" width="12.48" height="12.47"/><rect class="cls-2" width="12.48" height="12.47"/><rect class="cls-3" x="5.04" y="5.03" width="2.4" height="2.41"/></pattern></defs><text class="cls-4" transform="translate(87.7 73.06)"><tspan class="cls-5">REAL ES<tspan class="cls-6" x="66.98" y="0">TA</tspan><tspan class="cls-7" x="86.34" y="0">TE</tspan></tspan><tspan class="cls-8"><tspan x="0" y="39.6">$7</tspan><tspan class="cls-9" x="35.8" y="39.6">0</tspan><tspan x="55.27" y="39.6">,238,2</tspan><tspan class="cls-10" x="142" y="39.6">7</tspan><tspan x="157.08" y="39.6">4</tspan></tspan><tspan class="cls-11"><tspan x="0" y="74.6">36.2%</tspan></tspan></text><text class="cls-12" transform="translate(599.41 56.44)"><tspan class="cls-5">SMALL BUSINE<tspan class="cls-13" x="120.89" y="0">S</tspan><tspan class="cls-7" x="131.36" y="0">S</tspan></tspan><tspan class="cls-8"><tspan x="0" y="39.6">$1,643,614</tspan></tspan><tspan class="cls-11"><tspan x="0" y="74.6">0.8%</tspan></tspan></text><text class="cls-14" transform="translate(620.97 324.19)"><tspan class="cls-5">COMMERCIAL &amp; INDUSTRIAL</tspan><tspan class="cls-8"><tspan x="0" y="39.6">$218,250</tspan><tspan class="cls-15" x="127.25" y="39.6">	</tspan></tspan><tspan class="cls-11"><tspan x="0" y="74.6">0.1%</tspan></tspan></text><text class="cls-16" transform="translate(142.45 381.56)"><tspan class="cls-7">VENTURE INVESTMEN<tspan class="cls-17" x="175.91" y="0">T</tspan><tspan class="cls-5" x="185.56" y="0">S</tspan></tspan><tspan class="cls-8"><tspan x="0" y="39.6">$122</tspan><tspan class="cls-18" x="63.16" y="39.6">,</tspan><tspan class="cls-19" x="70.95" y="39.6">00</tspan><tspan class="cls-9" x="110.22" y="39.6">0</tspan><tspan class="cls-20" x="129.69" y="39.6">,</tspan><tspan x="137.48" y="39.6">000</tspan></tspan><tspan class="cls-11"><tspan x="0" y="74.6">62.9%</tspan></tspan></text><circle class="cls-21" cx="450.15" cy="233.15" r="157.74" transform="translate(147.9 640.14) rotate(-80.78)"/><path class="cls-22" d="M447.47,233.07l86.06-101a132.69,132.69,0,0,1-172.11,202c-28.67-24.43-44.82-57.42-46.51-95.06Z"/><path class="cls-23" d="M447.47,233.07l84.28-102.49c.4.32,1.39,1.15,1.78,1.49Z"/><path class="cls-24" d="M447.47,233.07l78.8-106.76c2.3,1.7,3.27,2.45,5.48,4.27Z"/><path class="cls-25" d="M447.47,233.07l-132.56,6A132.7,132.7,0,0,1,441.52,100.51c32-1.43,59,6.78,84.75,25.8Z"/><circle class="cls-26" cx="450.29" cy="233.27" r="108.51" transform="translate(167.57 654.27) rotate(-83.5)"/></svg>