<?xml version="1.0" encoding="utf-8"?>
<!-- Generator: Adobe Illustrator 25.2.3, SVG Export Plug-In . SVG Version: 6.00 Build 0)  -->
<svg version="1.1" id="Layer_1" xmlns="http://www.w3.org/2000/svg" xmlns:xlink="http://www.w3.org/1999/xlink" x="0px" y="0px"
	 viewBox="0 0 100 100" style="enable-background:new 0 0 100 100;" xml:space="preserve">
<style type="text/css">
	.st0{fill:none;stroke:#A4A6A9;stroke-width:6;stroke-miterlimit:10;}
</style>
<g>
	<path class="st0" d="M76.51,33.89c1.57-8.66-2.72-15.83-5.81-18.13C55.87,4.74,46.68,19.5,45.12,22.3
		c-1.56-2.8-10.75-17.56-25.58-6.53c-4.83,3.59-12.59,19.04,3.63,33.53"/>
	<path class="st0" d="M80.45,35.98c-14.83-11.03-24.02,3.73-25.57,6.53c-1.56-2.8-10.75-17.56-25.58-6.53
		c-4.95,3.68-12.98,19.81,4.88,34.6c4.29,3.55,13.21,9.74,17.86,14.39c0.94,0.89,1.85,1.91,2.67,3.06c0.06,0.08,0.1,0.16,0.16,0.24
		c0.06-0.08,0.1-0.16,0.16-0.24c0.83-1.15,1.73-2.18,2.68-3.07c4.65-4.65,13.56-10.84,17.85-14.39
		C93.43,55.79,85.4,39.66,80.45,35.98z"/>
</g>
</svg>
