<svg xmlns="http://www.w3.org/2000/svg" viewBox="0 0 58.44 58.44"><defs><style>.cls-1{fill:#262626;}.cls-2{fill:none;stroke:#262626;stroke-miterlimit:10;stroke-width:3px;}</style></defs><g id="Layer_2" data-name="Layer 2"><g id="elements"><path class="cls-1" d="M30.54,26.91,29,28.47l.5.5a2.37,2.37,0,0,1,.69,1.71,2.4,2.4,0,0,1-.7,1.7l-5,5a2.41,2.41,0,0,1-4.11-1.71,2.36,2.36,0,0,1,.7-1.71l4.62-4.61-1.56-1.56-4.62,4.61a4.62,4.62,0,0,0,6.53,6.54l5-5a4.62,4.62,0,0,0,0-6.52Z"/><path class="cls-1" d="M38.91,19.52a4.62,4.62,0,0,0-6.53,0l-5,5a4.62,4.62,0,0,0,0,6.52l.5.5L29.45,30l-.5-.51a2.33,2.33,0,0,1-.69-1.7,2.38,2.38,0,0,1,.7-1.7l5-5a2.41,2.41,0,1,1,3.41,3.42l-4.49,4.43,1.56,1.56,4.49-4.43a4.64,4.64,0,0,0,0-6.54Z"/><path class="cls-2" d="M1.5,29.22A27.72,27.72,0,1,1,29.22,56.94,27.72,27.72,0,0,1,1.5,29.22Z"/></g></g></svg>