<svg xmlns="http://www.w3.org/2000/svg" viewBox="0 0 26 31.26"><defs><style>.cls-1{fill:none;stroke:#54C3BB;stroke-miterlimit:10;stroke-width:1.5px;}.cls-2{fill:#54C3BB;}</style></defs><g id="Layer_2" data-name="Layer 2"><g id="elements"><path class="cls-1" d="M25.25,30.51H14.68v-23H25.25Zm-10.57,0H.75V.75H14.68Z"/><rect class="cls-2" x="4.19" y="4.31" width="2.18" height="2.18"/><rect class="cls-2" x="8.94" y="4.31" width="2.18" height="2.18"/><rect class="cls-2" x="4.19" y="9.48" width="2.18" height="2.18"/><rect class="cls-2" x="8.94" y="9.48" width="2.18" height="2.18"/><rect class="cls-2" x="4.19" y="14.64" width="2.18" height="2.18"/><rect class="cls-2" x="8.94" y="14.64" width="2.18" height="2.18"/><rect class="cls-2" x="4.19" y="19.81" width="2.18" height="2.18"/><rect class="cls-2" x="8.94" y="19.81" width="2.18" height="2.18"/><rect class="cls-2" x="4.19" y="24.97" width="2.18" height="2.18"/><rect class="cls-2" x="8.94" y="24.97" width="2.18" height="2.18"/><path class="cls-1" d="M17.51,26.44h4.92m-4.92-3.63h4.92m-4.92-3.63h4.92m-4.92-3.62h4.92m-4.92-3.63h4.92"/></g></g></svg>