<?xml version="1.0" encoding="UTF-8"?>
<svg width="40px" height="40px" viewBox="0 0 40 40" version="1.1" xmlns="http://www.w3.org/2000/svg" xmlns:xlink="http://www.w3.org/1999/xlink">
    <!-- Generator: Sketch 54.1 (76490) - https://sketchapp.com -->
    <title>Group</title>
    <desc>Created with Sketch.</desc>
    <g id="Page-1" stroke="none" stroke-width="1" fill="none" fill-rule="evenodd">
        <g id="Asset-3" transform="translate(-1212.000000, -7759.000000)">
            <g id="Group-127" transform="translate(167.000000, 89.860000)">
                <g id="Group" transform="translate(1046.000000, 7670.140000)">
                    <path d="M15.6885,26.6869 C22.7505,26.6869 26.6145,20.8349 26.6145,15.7649 C26.6145,15.5969 26.6105,15.4309 26.6045,15.2669 C27.3525,14.7239 28.0045,14.0499 28.5185,13.2789 C27.8315,13.5849 27.0885,13.7909 26.3135,13.8839 C27.1045,13.4079 27.7135,12.6579 28.0015,11.7589 C27.2605,12.1989 26.4365,12.5189 25.5655,12.6929 C24.8625,11.9469 23.8645,11.4779 22.7625,11.4779 C20.6395,11.4779 18.9225,13.1969 18.9225,15.3179 C18.9225,15.6189 18.9545,15.9119 19.0205,16.1949 C15.8295,16.0329 12.9995,14.5029 11.1045,12.1809 C10.7785,12.7509 10.5865,13.4079 10.5865,14.1129 C10.5865,15.4449 11.2645,16.6209 12.2955,17.3079 C11.6675,17.2889 11.0735,17.1149 10.5555,16.8279 L10.5555,16.8759 C10.5555,18.7359 11.8795,20.2889 13.6355,20.6399 C13.3135,20.7279 12.9715,20.7749 12.6225,20.7749 C12.3745,20.7749 12.1355,20.7499 11.9015,20.7069 C12.3915,22.2319 13.8075,23.3409 15.4895,23.3729 C14.1725,24.4019 12.5185,25.0169 10.7195,25.0169 C10.4075,25.0169 10.1045,24.9999 9.8035,24.9639 C11.5045,26.0519 13.5205,26.6869 15.6885,26.6869" id="Fill-214" fill="#262626"></path>
                    <path d="M0.6631,19.0834 C0.6631,8.8664 8.9461,0.5854 19.1611,0.5854 C29.3781,0.5854 37.6571,8.8664 37.6571,19.0834 C37.6571,29.3004 29.3781,37.5794 19.1611,37.5794 C8.9461,37.5794 0.6631,29.3004 0.6631,19.0834 Z" id="Stroke-216" stroke="#262626" stroke-width="2"></path>
                </g>
            </g>
        </g>
    </g>
</svg>