<?xml version="1.0" encoding="UTF-8"?>
<svg width="40px" height="40px" viewBox="0 0 40 40" version="1.1" xmlns="http://www.w3.org/2000/svg" xmlns:xlink="http://www.w3.org/1999/xlink">
    <!-- Generator: Sketch 54.1 (76490) - https://sketchapp.com -->
    <title>Group 2</title>
    <desc>Created with Sketch.</desc>
    <g id="Page-1" stroke="none" stroke-width="1" fill="none" fill-rule="evenodd">
        <g id="Asset-3" transform="translate(-1158.000000, -7759.000000)">
            <g id="Group-2" transform="translate(1159.002000, 7759.725400)">
                <path d="M19.1005,10.899 C16.8055,10.899 16.5145,10.911 15.6145,10.95 C14.7145,10.991 14.0985,11.135 13.5615,11.344 C13.0045,11.559 12.5345,11.848 12.0635,12.319 C11.5925,12.79 11.3055,13.26 11.0865,13.819 C10.8775,14.356 10.7355,14.971 10.6945,15.87 C10.6515,16.772 10.6435,17.061 10.6435,19.358 C10.6435,21.655 10.6515,21.942 10.6945,22.844 C10.7355,23.745 10.8775,24.36 11.0865,24.897 C11.3055,25.454 11.5925,25.924 12.0635,26.395 C12.5345,26.866 13.0045,27.153 13.5615,27.37 C14.0985,27.579 14.7145,27.723 15.6145,27.764 C16.5145,27.805 16.8055,27.815 19.1005,27.815 C21.3975,27.815 21.6865,27.805 22.5885,27.764 C23.4875,27.723 24.1025,27.579 24.6375,27.37 C25.1985,27.153 25.6685,26.866 26.1375,26.395 C26.6085,25.924 26.8995,25.454 27.1145,24.897 C27.3235,24.36 27.4675,23.745 27.5045,22.844 C27.5495,21.942 27.5595,21.655 27.5595,19.358 C27.5595,17.061 27.5495,16.772 27.5045,15.87 C27.4675,14.971 27.3235,14.356 27.1145,13.819 C26.8995,13.26 26.6085,12.79 26.1375,12.319 C25.6685,11.848 25.1985,11.559 24.6375,11.344 C24.1025,11.135 23.4875,10.991 22.5885,10.95 C21.6865,10.911 21.3975,10.899 19.1005,10.899 M19.1005,12.422 C21.3585,12.422 21.6255,12.432 22.5185,12.473 C23.3425,12.512 23.7915,12.649 24.0885,12.764 C24.4835,12.917 24.7645,13.1 25.0615,13.397 C25.3585,13.694 25.5375,13.973 25.6925,14.37 C25.8095,14.667 25.9465,15.114 25.9855,15.938 C26.0225,16.831 26.0365,17.098 26.0365,19.358 C26.0365,21.616 26.0225,21.883 25.9855,22.774 C25.9465,23.598 25.8095,24.049 25.6925,24.344 C25.5375,24.739 25.3585,25.024 25.0615,25.317 C24.7645,25.614 24.4835,25.797 24.0885,25.95 C23.7915,26.065 23.3425,26.204 22.5185,26.243 C21.6275,26.282 21.3585,26.29 19.1005,26.29 C16.8425,26.29 16.5755,26.282 15.6825,26.243 C14.8605,26.204 14.4115,26.065 14.1125,25.95 C13.7175,25.797 13.4345,25.614 13.1375,25.317 C12.8445,25.024 12.6615,24.739 12.5085,24.344 C12.3915,24.049 12.2545,23.598 12.2155,22.774 C12.1765,21.883 12.1665,21.616 12.1665,19.358 C12.1665,17.098 12.1765,16.831 12.2155,15.938 C12.2545,15.114 12.3915,14.667 12.5085,14.37 C12.6615,13.973 12.8445,13.694 13.1375,13.397 C13.4345,13.1 13.7175,12.917 14.1125,12.764 C14.4115,12.649 14.8605,12.512 15.6825,12.473 C16.5755,12.432 16.8425,12.422 19.1005,12.422" id="Fill-206" fill="#ffffff"></path>
                <path d="M19.1005,22.1763 C17.5435,22.1763 16.2825,20.9143 16.2825,19.3583 C16.2825,17.8013 17.5435,16.5373 19.1005,16.5373 C20.6555,16.5373 21.9185,17.8013 21.9185,19.3583 C21.9185,20.9143 20.6555,22.1763 19.1005,22.1763 M19.1005,15.0143 C16.7045,15.0143 14.7585,16.9573 14.7585,19.3583 C14.7585,21.7543 16.7045,23.6993 19.1005,23.6993 C21.4985,23.6993 23.4445,21.7543 23.4445,19.3583 C23.4445,16.9573 21.4985,15.0143 19.1005,15.0143" id="Fill-208" fill="#ffffff"></path>
                <path d="M24.6308,14.8424 C24.6308,15.4034 24.1768,15.8584 23.6158,15.8584 C23.0538,15.8584 22.6008,15.4034 22.6008,14.8424 C22.6008,14.2814 23.0538,13.8284 23.6158,13.8284 C24.1768,13.8284 24.6308,14.2814 24.6308,14.8424" id="Fill-210" fill="#ffffff"></path>
                <path d="M0.6025,19.358 C0.6025,9.141 8.8855,0.86 19.1005,0.86 C29.3175,0.86 37.6005,9.141 37.6005,19.358 C37.6005,29.575 29.3175,37.854 19.1005,37.854 C8.8855,37.854 0.6025,29.575 0.6025,19.358 Z" id="Stroke-212" stroke="#ffffff" stroke-width="2"></path>
            </g>
        </g>
    </g>
</svg>