<svg xmlns="http://www.w3.org/2000/svg" viewBox="0 0 281.83 60.69"><defs><style>.cls-1{fill:#766e65;}.cls-2{fill:#fcaf17;}</style></defs><g id="Layer_2" data-name="Layer 2"><g id="elements"><path class="cls-1" d="M177.35,40.31h-6.51V20.4h6.51c4.25,0,6.16,2.63,6.16,5.86v8.19c0,3.23-1.91,5.86-6.16,5.86m3-13.72c0-2.09-1-3.35-3.26-3.35H174V37.47h3.07c2.25,0,3.26-1.25,3.26-3.32V26.59Z"/><polygon class="cls-1" points="189.77 40.39 189.77 20.46 200.54 20.46 200.54 23.3 192.94 23.3 192.94 28.54 198.41 28.54 198.41 31.23 192.94 31.23 192.94 37.55 200.54 37.55 200.54 40.39 189.77 40.39 189.77 40.39"/><polygon class="cls-1" points="212.93 23.33 212.93 40.39 209.76 40.39 209.76 23.33 204.91 23.33 204.91 20.46 217.78 20.46 217.78 23.33 212.93 23.33 212.93 23.33"/><path class="cls-1" d="M235.61,40.55c-2.63,0-3.52-.72-3.52-3V34.3c0-1.55-.69-2.6-2.39-2.6h-3.41v8.61h-3.17V20.4h6.69c3.92,0,5.36,2,5.36,4.91v1.34c0,2.21-.81,3.47-3,3.86a3.5,3.5,0,0,1,3.13,3.76v3c0,.54.3.78,1,.78v2.45ZM232,25.28a1.93,1.93,0,0,0-2.16-2.22h-3.52V29.4h3.2A2.26,2.26,0,0,0,232,26.83V25.28Z"/><path class="cls-1" d="M247.78,40.82c-4.45,0-6.42-2.78-6.42-6.46v-8c0-3.64,2-6.43,6.42-6.43s6.43,2.79,6.43,6.43v8c0,3.68-2,6.46-6.43,6.46M251,26.14c0-2-1-3.46-3.26-3.46s-3.23,1.43-3.23,3.46v8.43c0,2,1,3.47,3.23,3.47S251,36.6,251,34.57V26.14Z"/><polygon class="cls-1" points="260.55 20.46 263.72 20.46 263.72 40.39 260.55 40.39 260.55 20.46 260.55 20.46"/><polygon class="cls-1" points="276.98 23.33 276.98 40.39 273.81 40.39 273.81 23.33 268.96 23.33 268.96 20.46 281.83 20.46 281.83 23.33 276.98 23.33 276.98 23.33"/><polygon class="cls-1" points="0 20.36 3.17 20.36 3.17 40.29 0 40.29 0 20.36 0 20.36"/><polygon class="cls-1" points="20.62 40.29 14.9 30.77 12.87 27.12 12.87 40.29 9.88 40.29 9.88 20.36 12.33 20.36 17.89 30.05 19.84 33.7 19.84 20.36 22.84 20.36 22.84 40.29 20.62 40.29 20.62 40.29"/><polygon class="cls-1" points="36.63 40.29 33.64 40.29 28.04 20.36 31.4 20.36 35.26 35.86 39.06 20.36 42.32 20.36 36.63 40.29 36.63 40.29"/><polygon class="cls-1" points="47.41 40.29 47.41 20.36 58.18 20.36 58.18 23.2 50.58 23.2 50.58 28.43 56.06 28.43 56.06 31.13 50.58 31.13 50.58 37.44 58.18 37.44 58.18 40.29 47.41 40.29 47.41 40.29"/><path class="cls-1" d="M69.79,40.72c-3.76,0-6.27-2.39-6.27-5.59v-1h3.13v.33c0,2.39,1.11,3.53,3.23,3.53a2.74,2.74,0,0,0,3.05-2.87c0-1.68-.81-2.54-3.79-3.92-2.67-1.22-5.35-2.81-5.35-6,0-3,2.17-5.45,6-5.45S76,22.19,76,25.41v.78h-3v-.33c0-1.82-.93-3.38-3.23-3.38A2.41,2.41,0,0,0,67,25c0,1.58.83,2.3,4.24,3.94s4.93,3.17,4.93,5.89c0,3.35-2.54,5.92-6.34,5.92"/><polygon class="cls-1" points="88.29 23.23 88.29 40.29 85.12 40.29 85.12 23.23 80.27 23.23 80.27 20.36 93.14 20.36 93.14 23.23 88.29 23.23 88.29 23.23"/><path class="cls-2" d="M130.4,40.85h0L129.07,56.1a.48.48,0,0,1-.59.43l-1.41-.33L130,60.48a.48.48,0,0,0,.79,0l2.94-4.28-1.41.33a.5.5,0,0,1-.6-.43L130.4,40.85Z"/><path class="cls-2" d="M130.4,19.89h0l1.35-15.33a.42.42,0,0,1,.52-.37l1.47.35-3-4.36a.42.42,0,0,0-.69,0l-3,4.36,1.46-.35a.43.43,0,0,1,.53.37l1.33,15.33Z"/><path class="cls-2" d="M140.88,30.37h0l15.35,1.34a.41.41,0,0,1,.36.5l-.36,1.49,4.38-3a.4.4,0,0,0,0-.67l-4.38-3,.36,1.5a.42.42,0,0,1-.36.5l-15.35,1.34Z"/><path class="cls-2" d="M119.93,30.37h0L104.67,29a.47.47,0,0,1-.43-.58l.34-1.42L100.29,30a.48.48,0,0,0,0,.79l4.28,2.94-.33-1.41a.48.48,0,0,1,.43-.59l15.26-1.33Z"/><path class="cls-2" d="M137.81,37.78h0l9.85,11.74a.49.49,0,0,1-.12.72l-1.23.75,5.1.95a.49.49,0,0,0,.57-.57L151,46.28l-.76,1.23a.5.5,0,0,1-.73.12l-11.73-9.85Z"/><path class="cls-2" d="M123,23h0l-9.9-11.8a.4.4,0,0,1,.1-.61l1.3-.8-5.22-1a.4.4,0,0,0-.47.47l1,5.22.81-1.31a.42.42,0,0,1,.61-.1L123,23Z"/><path class="cls-2" d="M137.81,23h0L149.64,13a.39.39,0,0,1,.57.09l.82,1.33,1-5.26a.38.38,0,0,0-.45-.44l-5.25,1,1.33.82a.38.38,0,0,1,.09.57L137.81,23Z"/><path class="cls-2" d="M123,37.78h0l-11.77,9.88a.46.46,0,0,1-.67-.11l-.78-1.27-1,5.16a.44.44,0,0,0,.52.51l5.16-1-1.27-.78a.45.45,0,0,1-.11-.67L123,37.78Z"/><path class="cls-2" d="M118.46,58.68h0l7.17-13.55a.46.46,0,0,1,.68-.16l1.19.87-1-5.11a.47.47,0,0,0-.71-.3l-4.39,2.81,1.44.25a.47.47,0,0,1,.37.61l-4.71,14.58Z"/><path class="cls-2" d="M142.34,2.13h0l-7.21,13.62a.39.39,0,0,1-.59.13L133.3,15l1.06,5.2a.41.41,0,0,0,.61.26l4.47-2.87-1.51-.26a.39.39,0,0,1-.32-.52l4.73-14.66Z"/><path class="cls-2" d="M158.68,42.34h0l-13.6-7.19a.42.42,0,0,1-.14-.63l.89-1.22-5.16,1.05a.44.44,0,0,0-.28.66l2.84,4.43.25-1.48a.44.44,0,0,1,.56-.34l14.64,4.72Z"/><path class="cls-2" d="M102.12,18.47h0l13.63,7.21a.39.39,0,0,1,.13.58L115,27.51l5.23-1.06a.39.39,0,0,0,.25-.59l-2.88-4.49-.26,1.54a.39.39,0,0,1-.5.3l-14.68-4.74Z"/><path class="cls-2" d="M142,58.84h0l-4.54-14.75a.38.38,0,0,1,.31-.49l1.53-.24-4.45-2.94a.39.39,0,0,0-.58.24l-1.14,5.21,1.27-.9a.38.38,0,0,1,.57.13l7,13.74Z"/><path class="cls-2" d="M118.84,2h0l4.53,14.72a.4.4,0,0,1-.32.52l-1.51.23L126,20.37a.4.4,0,0,0,.62-.25l1.14-5.18-1.26.89a.4.4,0,0,1-.59-.15L118.84,2Z"/><path class="cls-2" d="M158.83,18.84h0l-14.77,4.55a.36.36,0,0,1-.46-.3l-.25-1.55-3,4.47a.37.37,0,0,0,.23.56l5.24,1.14L145,26.42a.37.37,0,0,1,.13-.54l13.75-7Z"/><path class="cls-2" d="M102,42h0l14.72-4.54a.41.41,0,0,1,.53.34l.24,1.51,2.91-4.42a.42.42,0,0,0-.27-.64l-5.16-1.12.88,1.23a.42.42,0,0,1-.15.62L102,42Z"/></g></g></svg>