<svg xmlns="http://www.w3.org/2000/svg" viewBox="0 0 367.4 79.12"><defs><style>.cls-1{fill:#fff;}</style></defs><g id="Layer_2" data-name="Layer 2"><g id="elements"><path class="cls-1" d="M231.2,52.55h-8.49V26.6h8.49c5.53,0,8,3.43,8,7.63V44.91c0,4.21-2.5,7.64-8,7.64m3.9-17.88c0-2.73-1.33-4.37-4.25-4.37h-4V48.85h4c2.92,0,4.25-1.64,4.25-4.33V34.67Z"/><polygon class="cls-1" points="247.38 52.65 247.38 26.67 261.43 26.67 261.43 30.37 251.52 30.37 251.52 37.2 258.66 37.2 258.66 40.71 251.52 40.71 251.52 48.94 261.43 48.94 261.43 52.65 247.38 52.65 247.38 52.65"/><polygon class="cls-1" points="277.58 30.41 277.58 52.65 273.44 52.65 273.44 30.41 267.12 30.41 267.12 26.67 283.9 26.67 283.9 30.41 277.58 30.41 277.58 30.41"/><path class="cls-1" d="M307.15,52.86c-3.43,0-4.6-.93-4.6-3.9V44.72c0-2-.89-3.39-3.12-3.39H295V52.55h-4.13V26.6h8.73c5.1,0,7,2.53,7,6.39v1.75c0,2.89-1.06,4.52-4,5,2.88.31,4.09,2.65,4.09,4.91v4c0,.7.39,1,1.29,1v3.19ZM302.39,33c0-1.64-.66-2.88-2.8-2.88H295v8.26h4.17c2.1,0,3.23-1.14,3.23-3.35V33Z"/><path class="cls-1" d="M323,53.21c-5.8,0-8.38-3.62-8.38-8.41V34.35c0-4.75,2.58-8.38,8.38-8.38s8.38,3.63,8.38,8.38V44.8c0,4.79-2.54,8.41-8.38,8.41m4.25-19.13c0-2.65-1.33-4.52-4.25-4.52s-4.21,1.87-4.21,4.52v11c0,2.65,1.33,4.52,4.21,4.52s4.25-1.87,4.25-4.52v-11Z"/><polygon class="cls-1" points="339.66 26.67 343.79 26.67 343.79 52.65 339.66 52.65 339.66 26.67 339.66 26.67"/><polygon class="cls-1" points="361.08 30.41 361.08 52.65 356.94 52.65 356.94 30.41 350.62 30.41 350.62 26.67 367.4 26.67 367.4 30.41 361.08 30.41 361.08 30.41"/><polygon class="cls-1" points="0 26.54 4.14 26.54 4.14 52.52 0 52.52 0 26.54 0 26.54"/><polygon class="cls-1" points="26.88 52.52 19.43 40.11 16.77 35.35 16.77 52.52 12.88 52.52 12.88 26.54 16.07 26.54 23.33 39.17 25.87 43.94 25.87 26.54 29.77 26.54 29.77 52.52 26.88 52.52 26.88 52.52"/><polygon class="cls-1" points="47.76 52.52 43.85 52.52 36.56 26.54 40.93 26.54 45.96 46.74 50.92 26.54 55.17 26.54 47.76 52.52 47.76 52.52"/><polygon class="cls-1" points="61.8 52.52 61.8 26.54 75.85 26.54 75.85 30.24 65.94 30.24 65.94 37.07 73.08 37.07 73.08 40.58 65.94 40.58 65.94 48.81 75.85 48.81 75.85 52.52 61.8 52.52 61.8 52.52"/><path class="cls-1" d="M91,53.08c-4.91,0-8.18-3.12-8.18-7.29V44.55h4.09V45c0,3.11,1.44,4.59,4.21,4.59,2.61,0,4-1.56,4-3.74s-1-3.31-4.94-5.1c-3.47-1.6-7-3.67-7-7.79,0-3.9,2.84-7.1,7.8-7.1S99,28.92,99,33.13v1H95v-.43c0-2.37-1.2-4.4-4.2-4.4-2.38,0-3.55,1.4-3.55,3.24,0,2.06,1.09,3,5.53,5.14s6.43,4.13,6.43,7.67c0,4.37-3.31,7.72-8.26,7.72"/><polygon class="cls-1" points="115.1 30.28 115.1 52.52 110.96 52.52 110.96 30.28 104.64 30.28 104.64 26.54 121.42 26.54 121.42 30.28 115.1 30.28 115.1 30.28"/><path class="cls-1" d="M170,53.25h0l-1.74,19.88a.63.63,0,0,1-.77.56l-1.85-.43,3.84,5.58a.63.63,0,0,0,1,0l3.83-5.58-1.85.43a.63.63,0,0,1-.77-.56L170,53.25Z"/><path class="cls-1" d="M170,25.93h0l1.75-20a.55.55,0,0,1,.68-.49l1.92.46L170.45.24a.55.55,0,0,0-.91,0l-3.88,5.68,1.91-.46a.55.55,0,0,1,.68.49l1.75,20Z"/><path class="cls-1" d="M183.66,39.59h0l20,1.75a.52.52,0,0,1,.47.64l-.46,2L209.38,40a.53.53,0,0,0,0-.87l-5.71-3.91.46,1.95a.53.53,0,0,1-.47.65l-20,1.75Z"/><path class="cls-1" d="M156.34,39.59h0l-19.9-1.74a.62.62,0,0,1-.55-.77l.44-1.84-5.6,3.83a.63.63,0,0,0,0,1l5.59,3.84-.43-1.85a.63.63,0,0,1,.55-.77l19.9-1.73Z"/><path class="cls-1" d="M179.65,49.25h0l12.84,15.3a.63.63,0,0,1-.16.94l-1.59,1,6.64,1.24a.63.63,0,0,0,.74-.74l-1.24-6.65-1,1.61a.62.62,0,0,1-.94.15l-15.3-12.83Z"/><path class="cls-1" d="M160.34,29.93h0L147.43,14.55a.54.54,0,0,1,.13-.79l1.7-1-6.8-1.28a.52.52,0,0,0-.61.61l1.26,6.81,1.06-1.7A.52.52,0,0,1,145,17l15.38,12.91Z"/><path class="cls-1" d="M179.65,29.93h0L195.07,17a.5.5,0,0,1,.74.12l1.07,1.73L198.16,12a.5.5,0,0,0-.58-.58l-6.84,1.29,1.73,1.07a.5.5,0,0,1,.12.74L179.65,29.93Z"/><path class="cls-1" d="M160.34,49.25h0L145,62.12a.58.58,0,0,1-.87-.14l-1-1.66-1.25,6.73a.59.59,0,0,0,.68.68l6.72-1.26-1.65-1a.58.58,0,0,1-.14-.87l12.87-15.33Z"/><path class="cls-1" d="M154.43,76.5h0l9.34-17.66a.6.6,0,0,1,.89-.21l1.56,1.12-1.37-6.66a.61.61,0,0,0-.93-.39l-5.72,3.67,1.89.33a.6.6,0,0,1,.48.78l-6.14,19Z"/><path class="cls-1" d="M185.55,2.78h0l-9.39,17.75a.53.53,0,0,1-.78.18l-1.61-1.19,1.38,6.78a.53.53,0,0,0,.8.34l5.82-3.74-2-.33a.52.52,0,0,1-.41-.68l6.16-19.11Z"/><path class="cls-1" d="M206.85,55.19h0l-17.72-9.37a.56.56,0,0,1-.19-.82l1.16-1.59-6.73,1.37a.57.57,0,0,0-.36.86l3.71,5.78.33-1.94a.57.57,0,0,1,.73-.44l19.07,6.15Z"/><path class="cls-1" d="M133.12,24.08h0l17.78,9.4a.51.51,0,0,1,.17.75l-1.2,1.64,6.81-1.39a.51.51,0,0,0,.33-.77l-3.75-5.85-.35,2a.5.5,0,0,1-.65.4l-19.14-6.18Z"/><path class="cls-1" d="M185.05,76.7h0l-5.92-19.23a.5.5,0,0,1,.4-.64l2-.31-5.8-3.82A.49.49,0,0,0,175,53l-1.48,6.79,1.65-1.18a.5.5,0,0,1,.74.18l9.17,17.9Z"/><path class="cls-1" d="M154.92,2.56h0l5.91,19.19a.52.52,0,0,1-.42.68l-2,.31,5.76,3.82a.53.53,0,0,0,.81-.33l1.48-6.76-1.63,1.16a.53.53,0,0,1-.78-.19L154.92,2.56Z"/><path class="cls-1" d="M207.05,24.56h0L187.8,30.49a.49.49,0,0,1-.61-.39l-.31-2L183,33.91a.48.48,0,0,0,.3.73l6.82,1.48L189,34.44a.48.48,0,0,1,.17-.7l17.92-9.18Z"/><path class="cls-1" d="M132.92,54.71h0l19.18-5.92a.55.55,0,0,1,.7.44l.3,2,3.8-5.76a.55.55,0,0,0-.34-.83l-6.74-1.46L151,44.76a.54.54,0,0,1-.19.8l-17.86,9.15Z"/></g></g></svg>