<svg xmlns="http://www.w3.org/2000/svg" viewBox="0 0 463.78 99.87"><defs><style>.cls-1{fill:#fff;}.cls-2{fill:#fcaf17;}</style></defs><g id="Layer_2" data-name="Layer 2"><g id="elements"><path class="cls-1" d="M291.85,66.33H281.13V33.58h10.72c7,0,10.14,4.32,10.14,9.64V56.7c0,5.31-3.15,9.63-10.14,9.63m4.92-22.57c0-3.44-1.67-5.51-5.36-5.51h-5.07V61.66h5.07c3.69,0,5.36-2.06,5.36-5.46V43.76Z"/><polygon class="cls-1" points="312.27 66.46 312.27 33.66 330 33.66 330 38.34 317.49 38.34 317.49 46.96 326.51 46.96 326.51 51.39 317.49 51.39 317.49 61.79 330 61.79 330 66.46 312.27 66.46 312.27 66.46"/><polygon class="cls-1" points="350.39 38.39 350.39 66.46 345.18 66.46 345.18 38.39 337.2 38.39 337.2 33.66 358.38 33.66 358.38 38.39 350.39 38.39 350.39 38.39"/><path class="cls-1" d="M387.72,66.73c-4.33,0-5.8-1.18-5.8-4.92V56.45c0-2.56-1.13-4.28-3.94-4.28h-5.6V66.34h-5.22V33.58h11c6.44,0,8.81,3.19,8.81,8.06v2.22c0,3.64-1.33,5.7-5,6.34,3.64.4,5.16,3.34,5.16,6.2v5c0,.88.49,1.27,1.62,1.27v4Zm-6-25.13c0-2.07-.84-3.65-3.54-3.65h-5.8V48.38h5.26c2.65,0,4.08-1.43,4.08-4.23V41.6Z"/><path class="cls-1" d="M407.74,67.17c-7.32,0-10.57-4.57-10.57-10.62V43.36c0-6,3.25-10.57,10.57-10.57s10.58,4.57,10.58,10.57V56.55c0,6.05-3.2,10.62-10.58,10.62M413.1,43c0-3.34-1.67-5.71-5.36-5.71s-5.31,2.37-5.31,5.71V56.89c0,3.34,1.67,5.71,5.31,5.71s5.36-2.37,5.36-5.71V43Z"/><polygon class="cls-1" points="428.76 33.66 433.98 33.66 433.98 66.46 428.76 66.46 428.76 33.66 428.76 33.66"/><polygon class="cls-1" points="455.8 38.39 455.8 66.46 450.58 66.46 450.58 38.39 442.6 38.39 442.6 33.66 463.77 33.66 463.77 38.39 455.8 38.39 455.8 38.39"/><polygon class="cls-1" points="0 33.5 5.22 33.5 5.22 66.29 0 66.29 0 33.5 0 33.5"/><polygon class="cls-1" points="33.93 66.29 24.52 50.64 21.18 44.63 21.18 66.29 16.25 66.29 16.25 33.5 20.29 33.5 29.45 49.45 32.65 55.46 32.65 33.5 37.58 33.5 37.58 66.29 33.93 66.29 33.93 66.29"/><polygon class="cls-1" points="60.28 66.29 55.36 66.29 46.15 33.5 51.67 33.5 58.02 59.01 64.27 33.5 69.64 33.5 60.28 66.29 60.28 66.29"/><polygon class="cls-1" points="78.02 66.29 78.02 33.5 95.74 33.5 95.74 38.17 83.24 38.17 83.24 46.79 92.25 46.79 92.25 51.23 83.24 51.23 83.24 61.62 95.74 61.62 95.74 66.29 78.02 66.29 78.02 66.29"/><path class="cls-1" d="M114.85,67c-6.2,0-10.33-3.93-10.33-9.19V56.24h5.16v.54c0,3.93,1.82,5.8,5.32,5.8,3.29,0,5-2,5-4.72s-1.33-4.18-6.25-6.45c-4.38-2-8.81-4.62-8.81-9.83,0-4.92,3.59-9,9.84-9S125,36.51,125,41.82V43.1h-5v-.54c0-3-1.52-5.56-5.31-5.56-3,0-4.47,1.77-4.47,4.09,0,2.6,1.37,3.78,7,6.49,5.76,2.75,8.12,5.21,8.12,9.69,0,5.5-4.18,9.73-10.43,9.73"/><polygon class="cls-1" points="145.29 38.23 145.29 66.29 140.07 66.29 140.07 38.23 132.09 38.23 132.09 33.5 153.27 33.5 153.27 38.23 145.29 38.23 145.29 38.23"/><path class="cls-2" d="M214.59,67.22h0l-2.19,25.1a.79.79,0,0,1-1,.7l-2.32-.54,4.84,7a.78.78,0,0,0,1.31,0l4.83-7-2.33.54a.79.79,0,0,1-1-.7l-2.19-25.1Z"/><path class="cls-2" d="M214.59,32.73h0L216.8,7.51a.7.7,0,0,1,.86-.61l2.42.57L215.17.3a.7.7,0,0,0-1.15,0l-4.9,7.16,2.41-.57a.7.7,0,0,1,.86.61l2.2,25.22Z"/><path class="cls-2" d="M231.83,50h0l25.26,2.21a.67.67,0,0,1,.59.82l-.58,2.46,7.2-4.93a.67.67,0,0,0,0-1.11l-7.2-4.94.58,2.47a.68.68,0,0,1-.59.82L231.83,50Z"/><path class="cls-2" d="M197.36,50h0l-25.12-2.19a.79.79,0,0,1-.7-1l.55-2.33L165,49.32a.79.79,0,0,0,0,1.31l7.05,4.83-.54-2.33a.79.79,0,0,1,.7-1L197.36,50Z"/><path class="cls-2" d="M226.78,62.18h0L243,81.48a.8.8,0,0,1-.19,1.19l-2,1.24,8.39,1.56a.8.8,0,0,0,.93-.93l-1.56-8.39-1.25,2a.8.8,0,0,1-1.19.19L226.78,62.18Z"/><path class="cls-2" d="M202.4,37.78h0L186.11,18.36a.66.66,0,0,1,.16-1L188.41,16l-8.58-1.61a.66.66,0,0,0-.78.77l1.6,8.59L182,21.64a.68.68,0,0,1,1-.16l19.42,16.3Z"/><path class="cls-2" d="M226.78,37.78h0l19.46-16.32a.63.63,0,0,1,.93.15l1.36,2.18,1.61-8.65a.62.62,0,0,0-.73-.72L240.77,16,243,17.39a.62.62,0,0,1,.15.94L226.78,37.78Z"/><path class="cls-2" d="M202.4,62.16h0L183,78.42a.73.73,0,0,1-1.09-.17l-1.3-2.1-1.58,8.49a.73.73,0,0,0,.86.85l8.48-1.58-2.08-1.29a.73.73,0,0,1-.18-1.09L202.4,62.16Z"/><path class="cls-2" d="M194.94,96.57h0l11.79-22.3a.77.77,0,0,1,1.13-.26l2,1.42L208.09,67a.77.77,0,0,0-1.17-.49l-7.21,4.63,2.37.41a.77.77,0,0,1,.61,1l-7.75,24Z"/><path class="cls-2" d="M234.23,3.51h0l-11.86,22.4a.67.67,0,0,1-1,.23l-2-1.49,1.75,8.55a.67.67,0,0,0,1,.43l7.34-4.72L227,28.49a.67.67,0,0,1-.53-.86l7.79-24.12Z"/><path class="cls-2" d="M261.11,69.68h0L238.74,57.85a.71.71,0,0,1-.23-1l1.46-2-8.5,1.73a.71.71,0,0,0-.45,1.08l4.69,7.3.41-2.45a.7.7,0,0,1,.91-.55l24.08,7.77Z"/><path class="cls-2" d="M168,30.4h0l22.44,11.87a.63.63,0,0,1,.22.94l-1.51,2.07,8.59-1.76a.63.63,0,0,0,.41-1l-4.73-7.38L193,37.7a.65.65,0,0,1-.83.5L168,30.4Z"/><path class="cls-2" d="M233.6,96.82h0l-7.48-24.27a.64.64,0,0,1,.51-.81l2.52-.39-7.32-4.83a.63.63,0,0,0-1,.39L219,75.49l2.1-1.5a.64.64,0,0,1,.93.23l11.58,22.6Z"/><path class="cls-2" d="M195.56,3.24h0L203,27.46a.66.66,0,0,1-.53.85L200,28.7l7.28,4.83a.67.67,0,0,0,1-.42l1.87-8.53-2.07,1.47a.67.67,0,0,1-1-.25L195.56,3.24Z"/><path class="cls-2" d="M261.37,31h0l-24.3,7.48a.61.61,0,0,1-.77-.49l-.4-2.56L231,42.81a.6.6,0,0,0,.38.92L240,45.6l-1.5-2.12a.6.6,0,0,1,.22-.88L261.37,31Z"/><path class="cls-2" d="M167.79,69.06h0L192,61.59a.69.69,0,0,1,.88.56l.39,2.48,4.78-7.26a.68.68,0,0,0-.43-1l-8.49-1.85,1.45,2a.69.69,0,0,1-.25,1L167.79,69.06Z"/></g></g></svg>