<svg xmlns="http://www.w3.org/2000/svg" xmlns:xlink="http://www.w3.org/1999/xlink" viewBox="0 0 747.63 429.68"><defs><style>.cls-1{fill:none;}.cls-2{fill:#262626;}.cls-3{fill:#161616;}.cls-10,.cls-11,.cls-12,.cls-13,.cls-14,.cls-15,.cls-16,.cls-17,.cls-18,.cls-19,.cls-20,.cls-21,.cls-22,.cls-23,.cls-24,.cls-25,.cls-26,.cls-4,.cls-5,.cls-6,.cls-8,.cls-9{isolation:isolate;}.cls-11,.cls-12,.cls-18,.cls-21,.cls-22,.cls-23,.cls-5,.cls-6{font-size:18px;font-family:Knockout-30JuniorWelterwt, Knockout;}.cls-10,.cls-31,.cls-5,.cls-6,.cls-8,.cls-9{fill:#fcaf17;}.cls-11,.cls-18,.cls-23,.cls-5{letter-spacing:0.1em;}.cls-6{letter-spacing:0.04em;}.cls-7{letter-spacing:0.07em;}.cls-13,.cls-14,.cls-15,.cls-16,.cls-19,.cls-24,.cls-25,.cls-8,.cls-9{font-size:33px;font-family:Knockout-31JuniorMiddlewt, Knockout;}.cls-25,.cls-9{letter-spacing:-0.14em;}.cls-10,.cls-17,.cls-20,.cls-26{font-size:25px;font-family:Knockout-70FullWelterwt, Knockout;}.cls-11,.cls-12,.cls-13,.cls-14,.cls-15,.cls-16,.cls-17,.cls-30{fill:#cf5755;}.cls-12{letter-spacing:0.09em;}.cls-14{letter-spacing:-0.01em;}.cls-15{letter-spacing:-0.02em;}.cls-16{letter-spacing:-0.05em;}.cls-18,.cls-19,.cls-20,.cls-29{fill:#54c3bb;}.cls-21,.cls-22,.cls-23,.cls-24,.cls-25,.cls-26,.cls-28{fill:#006f8b;}.cls-21{letter-spacing:0.1em;}.cls-22{letter-spacing:0.08em;}.cls-27{fill:url(#New_Pattern_Swatch_2);}.cls-31{fill-rule:evenodd;}.cls-32{fill:url(#New_Pattern_Swatch_1);}</style><pattern id="New_Pattern_Swatch_2" data-name="New Pattern Swatch 2" width="12.48" height="12.47" patternTransform="matrix(0.71, -0.71, -0.71, -0.71, 246.21, 704.06)" patternUnits="userSpaceOnUse" viewBox="0 0 12.48 12.47"><rect class="cls-1" width="12.48" height="12.47"/><rect class="cls-1" width="12.48" height="12.47"/><rect class="cls-1" width="12.48" height="12.47"/><rect class="cls-3" x="5.04" y="5.03" width="2.4" height="2.41"/></pattern><pattern id="New_Pattern_Swatch_1" data-name="New Pattern Swatch 1" width="12.48" height="12.47" patternTransform="matrix(1, 0, 0, -1, 9.27, 1057.52)" patternUnits="userSpaceOnUse" viewBox="0 0 12.48 12.47"><rect class="cls-1" width="12.48" height="12.47"/><rect class="cls-1" width="12.48" height="12.47"/><rect class="cls-2" width="12.48" height="12.47"/><rect class="cls-3" x="5.04" y="5.03" width="2.4" height="2.41"/></pattern></defs><g id="Layer_2" data-name="Layer 2"><g id="Layer_1-2" data-name="Layer 1"><g class="cls-4"><text class="cls-5" transform="translate(0 36.34)">REAL ES</text><text class="cls-6" transform="translate(66.98 36.34)">T<tspan class="cls-7" x="8.93" y="0">A</tspan></text><text class="cls-5" transform="translate(86.34 36.34)">TE</text><text class="cls-8" transform="translate(0 75.93)">$</text><text class="cls-8" transform="translate(19.07 75.93)">7</text><text class="cls-8" transform="translate(35.71 75.93)">6,21</text><text class="cls-9" transform="translate(88.7 75.93)">7</text><text class="cls-8" transform="translate(100.88 75.93)">,500</text><text class="cls-10" transform="translate(0 110.93)">68.7%</text></g><g class="cls-4"><text class="cls-11" transform="translate(526.77 25.53)">SMALL BUSINE</text><text class="cls-12" transform="translate(647.66 25.53)">S</text><text class="cls-11" transform="translate(658.13 25.53)">S</text><text class="cls-13" transform="translate(526.77 65.12)">$4,37</text><text class="cls-14" transform="translate(605.34 65.12)">0</text><text class="cls-15" transform="translate(624.81 65.12)">,</text><text class="cls-16" transform="translate(632.2 65.12)">7</text><text class="cls-13" transform="translate(647.28 65.12)">48</text><text class="cls-17" transform="translate(526.77 100.12)">3.9%</text></g><g class="cls-4"><text class="cls-18" transform="translate(515.99 287.47)">COMMERCIAL &amp; INDUSTRIAL</text><text class="cls-19" transform="translate(515.99 327.06)">$14,411,100</text><text class="cls-20" transform="translate(515.99 362.06)">13%</text></g><g class="cls-4"><text class="cls-21" transform="translate(141.45 348.71)">VENTURE INVESTMEN</text><text class="cls-22" transform="translate(317.36 348.71)">T</text><text class="cls-23" transform="translate(327.01 348.71)">S</text><text class="cls-24" transform="translate(141.45 388.3)">$15,96</text><text class="cls-25" transform="translate(232.76 388.3)">7</text><text class="cls-24" transform="translate(244.94 388.3)">,962</text><text class="cls-26" transform="translate(141.45 423.3)">14.4%</text></g><circle class="cls-27" cx="349.35" cy="157.74" r="157.74"/><path class="cls-28" d="M346.6,157.73l69.71,112.91c-35.85,22.14-76.24,26.16-115.76,11.54Z"/><path class="cls-29" d="M346.6,157.73l130.12,26c-7.46,37.3-28,66.91-60.41,86.89Z"/><path class="cls-30" d="M346.6,157.73l132.55-6.23a126.55,126.55,0,0,1-2.43,32.25Z"/><path class="cls-31" d="M346.6,157.73,300.55,282.18A132.69,132.69,0,0,1,392.66,33.29h0c51.34,19,83.92,63.53,86.49,118.21Z"/><circle class="cls-32" cx="349.51" cy="157.86" r="108.51"/></g></g></svg>