<svg id="Layer_1" data-name="Layer 1" xmlns="http://www.w3.org/2000/svg" xmlns:xlink="http://www.w3.org/1999/xlink" viewBox="0 0 900 500"><defs><style>.cls-1{fill:none;}.cls-2{fill:#262626;}.cls-3{fill:#161616;}.cls-13,.cls-18,.cls-19,.cls-4{font-size:18px;font-family:Knockout-30JuniorWelterwt, Knockout;}.cls-25,.cls-4{fill:#fcaf17;}.cls-5{letter-spacing:0.1em;}.cls-6{letter-spacing:0.07em;}.cls-7{letter-spacing:0.1em;}.cls-8{font-size:33px;font-family:Knockout-31JuniorMiddlewt, Knockout;}.cls-9{letter-spacing:0em;}.cls-10{letter-spacing:0em;}.cls-11{letter-spacing:-0.14em;}.cls-12{font-size:25px;font-family:Knockout-70FullWelterwt, Knockout;}.cls-13,.cls-24{fill:#cf5755;}.cls-14{letter-spacing:0.09em;}.cls-15{letter-spacing:-0.01em;}.cls-16{letter-spacing:-0.02em;}.cls-17{letter-spacing:-0.05em;}.cls-18,.cls-23{fill:#54c3bb;}.cls-19,.cls-22{fill:#006f8b;}.cls-20{letter-spacing:0.08em;}.cls-21{fill:url(#New_Pattern_Swatch_2);}.cls-25{fill-rule:evenodd;}.cls-26{fill:url(#New_Pattern_Swatch_1);}</style><pattern id="New_Pattern_Swatch_2" data-name="New Pattern Swatch 2" width="12.48" height="12.47" patternTransform="translate(219.05 142.05)" patternUnits="userSpaceOnUse" viewBox="0 0 12.48 12.47"><rect class="cls-1" width="12.48" height="12.47"/><rect class="cls-1" width="12.48" height="12.47"/><rect class="cls-3" x="5.04" y="5.03" width="2.4" height="2.41"/></pattern><pattern id="New_Pattern_Swatch_1" data-name="New Pattern Swatch 1" width="12.48" height="12.47" patternTransform="translate(-2.29 -45.45)" patternUnits="userSpaceOnUse" viewBox="0 0 12.48 12.47"><rect class="cls-1" width="12.48" height="12.47"/><rect class="cls-2" width="12.48" height="12.47"/><rect class="cls-3" x="5.04" y="5.03" width="2.4" height="2.41"/></pattern></defs><text class="cls-4" transform="translate(79.62 76.25)"><tspan class="cls-5">REAL ES<tspan class="cls-6" x="66.98" y="0">TA</tspan><tspan class="cls-7" x="86.34" y="0">TE</tspan></tspan><tspan class="cls-8"><tspan x="0" y="39.6">$</tspan><tspan class="cls-9" x="19.07" y="39.6">7</tspan><tspan class="cls-10" x="35.71" y="39.6">6,21</tspan><tspan class="cls-11" x="88.7" y="39.6">7</tspan><tspan class="cls-10" x="100.88" y="39.6">,500</tspan></tspan><tspan class="cls-12"><tspan x="0" y="74.6">68.7%</tspan></tspan></text><text class="cls-13" transform="translate(606.39 65.44)"><tspan class="cls-5">SMALL BUSINE<tspan class="cls-14" x="120.89" y="0">S</tspan><tspan class="cls-7" x="131.36" y="0">S</tspan></tspan><tspan class="cls-8"><tspan x="0" y="39.6">$4,37</tspan><tspan class="cls-15" x="78.57" y="39.6">0</tspan><tspan class="cls-16" x="98.04" y="39.6">,</tspan><tspan class="cls-17" x="105.43" y="39.6">7</tspan><tspan x="120.51" y="39.6">48</tspan></tspan><tspan class="cls-12"><tspan x="0" y="74.6">3.9%</tspan></tspan></text><text class="cls-18" transform="translate(595.61 327.38)"><tspan class="cls-5">COMMERCIAL &amp; INDUSTRIAL</tspan><tspan class="cls-8"><tspan x="0" y="39.6">$14,411,100</tspan></tspan><tspan class="cls-12"><tspan x="0" y="74.6">13%</tspan></tspan></text><text class="cls-19" transform="translate(221.07 388.62)"><tspan class="cls-7">VENTURE INVESTMEN<tspan class="cls-20" x="175.91" y="0">T</tspan><tspan class="cls-5" x="185.56" y="0">S</tspan></tspan><tspan class="cls-8"><tspan x="0" y="39.6">$15,96</tspan><tspan class="cls-11" x="91.31" y="39.6">7</tspan><tspan x="103.49" y="39.6">,962</tspan></tspan><tspan class="cls-12"><tspan x="0" y="74.6">14.4%</tspan></tspan></text><circle class="cls-21" cx="428.98" cy="197.65" r="157.74" transform="translate(-14.12 361.23) rotate(-45)"/><path class="cls-22" d="M426.22,197.64l69.71,112.91c-35.85,22.14-76.24,26.16-115.76,11.54Z"/><path class="cls-23" d="M426.22,197.64l130.12,26c-7.46,37.3-28,66.91-60.41,86.89Z"/><path class="cls-24" d="M426.22,197.64l132.55-6.23a126.48,126.48,0,0,1-2.43,32.25Z"/><path class="cls-25" d="M426.22,197.64,380.17,322.09A132.69,132.69,0,0,1,472.28,73.2c51.34,19,83.92,63.53,86.49,118.21Z"/><circle class="cls-26" cx="429.13" cy="197.77" r="108.51"/></svg>