<svg xmlns="http://www.w3.org/2000/svg" xmlns:xlink="http://www.w3.org/1999/xlink" viewBox="0 0 750.99 433.15"><defs><style>.cls-1{fill:none;}.cls-2{fill:#262626;}.cls-3{fill:#161616;}.cls-10,.cls-11,.cls-12,.cls-13,.cls-14,.cls-15,.cls-16,.cls-17,.cls-18,.cls-19,.cls-20,.cls-21,.cls-22,.cls-23,.cls-24,.cls-25,.cls-26,.cls-4,.cls-5,.cls-6,.cls-8,.cls-9{isolation:isolate;}.cls-13,.cls-14,.cls-17,.cls-21,.cls-22,.cls-23,.cls-5,.cls-6{font-size:18px;font-family:Knockout-30JuniorWelterwt, Knockout;}.cls-10,.cls-11,.cls-12,.cls-31,.cls-5,.cls-6,.cls-8,.cls-9{fill:#fcaf17;}.cls-13,.cls-17,.cls-23,.cls-5{letter-spacing:0.1em;}.cls-6{letter-spacing:0.04em;}.cls-7{letter-spacing:0.07em;}.cls-10,.cls-11,.cls-15,.cls-18,.cls-19,.cls-24,.cls-25,.cls-8,.cls-9{font-size:33px;font-family:Knockout-31JuniorMiddlewt, Knockout;}.cls-25,.cls-9{letter-spacing:-0.01em;}.cls-10{letter-spacing:-0.02em;}.cls-11{letter-spacing:1.11em;}.cls-12,.cls-16,.cls-20,.cls-26{font-size:25px;font-family:Knockout-70FullWelterwt, Knockout;}.cls-13,.cls-14,.cls-15,.cls-16,.cls-30{fill:#cf5755;}.cls-14{letter-spacing:0.09em;}.cls-17,.cls-18,.cls-19,.cls-20,.cls-29{fill:#54c3bb;}.cls-19{letter-spacing:-0.01em;}.cls-21,.cls-22,.cls-23,.cls-24,.cls-25,.cls-26,.cls-28{fill:#006f8b;}.cls-21{letter-spacing:0.1em;}.cls-22{letter-spacing:0.08em;}.cls-27{fill:url(#New_Pattern_Swatch_2);}.cls-31{fill-rule:evenodd;}.cls-32{fill:url(#New_Pattern_Swatch_1);}</style><pattern id="New_Pattern_Swatch_2" data-name="New Pattern Swatch 2" width="12.48" height="12.47" patternTransform="matrix(0.71, -0.71, -0.71, -0.71, 106.97, 541.13)" patternUnits="userSpaceOnUse" viewBox="0 0 12.48 12.47"><rect class="cls-1" width="12.48" height="12.47"/><rect class="cls-1" width="12.48" height="12.47"/><rect class="cls-1" width="12.48" height="12.47"/><rect class="cls-3" x="5.04" y="5.03" width="2.4" height="2.41"/></pattern><pattern id="New_Pattern_Swatch_1" data-name="New Pattern Swatch 1" width="12.48" height="12.47" patternTransform="matrix(1, 0, 0, -1, 23.84, 869.89)" patternUnits="userSpaceOnUse" viewBox="0 0 12.48 12.47"><rect class="cls-1" width="12.48" height="12.47"/><rect class="cls-1" width="12.48" height="12.47"/><rect class="cls-2" width="12.48" height="12.47"/><rect class="cls-3" x="5.04" y="5.03" width="2.4" height="2.41"/></pattern></defs><g id="Layer_2" data-name="Layer 2"><g id="Layer_1-2" data-name="Layer 1"><g class="cls-4"><text class="cls-5" transform="translate(0 45.34)">REAL ES</text><text class="cls-6" transform="translate(66.98 45.34)">T<tspan class="cls-7" x="8.93" y="0">A</tspan></text><text class="cls-5" transform="translate(86.34 45.34)">TE</text><text class="cls-8" transform="translate(0 84.94)">$2</text><text class="cls-9" transform="translate(36.5 84.94)">0</text><text class="cls-8" transform="translate(55.97 84.94)">,28</text><text class="cls-8" transform="translate(99.99 84.94)">0</text><text class="cls-10" transform="translate(119.46 84.94)">,</text><text class="cls-8" transform="translate(126.85 84.94)">756</text><text class="cls-11" transform="translate(179.88 84.94)"> </text><text class="cls-12" transform="translate(0 119.94)">66.8%</text></g><g class="cls-4"><text class="cls-13" transform="translate(557.51 35.86)">SMALL BUSINE</text><text class="cls-14" transform="translate(678.4 35.86)">S</text><text class="cls-13" transform="translate(688.87 35.86)">S</text><text class="cls-15" transform="translate(557.51 75.46)">$1,6</text><text class="cls-15" transform="translate(612.16 75.46)">0</text><text class="cls-15" transform="translate(631.69 75.46)">5</text><text class="cls-15" transform="translate(649.55 75.46)">,</text><text class="cls-15" transform="translate(657.33 75.46)">000</text><text class="cls-16" transform="translate(557.51 110.46)">5.3%</text></g><g class="cls-4"><text class="cls-17" transform="translate(519.35 307.89)">COMMERCIAL &amp; INDUSTRIAL</text><text class="cls-18" transform="translate(519.35 347.49)">$2,65</text><text class="cls-19" transform="translate(600.03 347.49)">9</text><text class="cls-18" transform="translate(618.58 347.49)">,250</text><text class="cls-20" transform="translate(519.35 382.49)">8.8%</text></g><g class="cls-4"><text class="cls-21" transform="translate(134.72 352.17)">VENTURE INVESTMEN</text><text class="cls-22" transform="translate(310.63 352.17)">T</text><text class="cls-23" transform="translate(320.28 352.17)">S</text><text class="cls-24" transform="translate(134.72 391.77)">$5,81</text><text class="cls-25" transform="translate(207.48 391.77)">0</text><text class="cls-24" transform="translate(226.95 391.77)">,231</text><text class="cls-26" transform="translate(134.72 426.77)">19.1%</text></g><circle class="cls-27" cx="373.79" cy="157.74" r="157.74"/><path class="cls-28" d="M371,157.79l100.15,87c-36.53,42-93.18,56.7-145.52,37.66Z"/><path class="cls-29" d="M371,157.79l131.06,20.78c-4.12,26.06-13.6,46.39-30.91,66.3Z"/><path class="cls-30" d="M371,157.79,502,137a126.26,126.26,0,0,1,0,41.51Z"/><path class="cls-31" d="M371,157.79,325.62,282.48A132.69,132.69,0,1,1,416.35,33.09h0c46.83,17,77.89,54.7,85.69,103.92Z"/><circle class="cls-32" cx="373.94" cy="157.85" r="108.51"/></g></g></svg>