<svg id="Layer_1" data-name="Layer 1" xmlns="http://www.w3.org/2000/svg" xmlns:xlink="http://www.w3.org/1999/xlink" viewBox="0 0 900 500"><defs><style>.cls-1{fill:none;}.cls-2{fill:#262626;}.cls-3{fill:#161616;}.cls-14,.cls-19,.cls-21,.cls-4{font-size:18px;font-family:Knockout-30JuniorWelterwt, Knockout;}.cls-27,.cls-4{fill:#fcaf17;}.cls-5{letter-spacing:0.1em;}.cls-6{letter-spacing:0.07em;}.cls-7{letter-spacing:0.1em;}.cls-8{font-size:33px;font-family:Knockout-31JuniorMiddlewt, Knockout;}.cls-9{letter-spacing:-0.01em;}.cls-10{letter-spacing:0em;}.cls-11{letter-spacing:-0.02em;}.cls-12{letter-spacing:1.11em;}.cls-13{font-size:25px;font-family:Knockout-70FullWelterwt, Knockout;}.cls-14,.cls-26{fill:#cf5755;}.cls-15{letter-spacing:0.09em;}.cls-16{letter-spacing:0em;}.cls-17{letter-spacing:0em;}.cls-18{letter-spacing:0em;}.cls-19,.cls-25{fill:#54c3bb;}.cls-20{letter-spacing:-0.01em;}.cls-21,.cls-24{fill:#006f8b;}.cls-22{letter-spacing:0.08em;}.cls-23{fill:url(#New_Pattern_Swatch_2);}.cls-27{fill-rule:evenodd;}.cls-28{fill:url(#New_Pattern_Swatch_1);}</style><pattern id="New_Pattern_Swatch_2" data-name="New Pattern Swatch 2" width="12.48" height="12.47" patternTransform="translate(6.95 142.05)" patternUnits="userSpaceOnUse" viewBox="0 0 12.48 12.47"><rect class="cls-1" width="12.48" height="12.47"/><rect class="cls-1" width="12.48" height="12.47"/><rect class="cls-3" x="5.04" y="5.03" width="2.4" height="2.41"/></pattern><pattern id="New_Pattern_Swatch_1" data-name="New Pattern Swatch 1" width="12.48" height="12.47" patternTransform="translate(12.28 142.18)" patternUnits="userSpaceOnUse" viewBox="0 0 12.48 12.47"><rect class="cls-1" width="12.48" height="12.47"/><rect class="cls-2" width="12.48" height="12.47"/><rect class="cls-3" x="5.04" y="5.03" width="2.4" height="2.41"/></pattern></defs><text class="cls-4" transform="translate(76.21 78.77)"><tspan class="cls-5">REAL ES<tspan class="cls-6" x="66.98" y="0">TA</tspan><tspan class="cls-7" x="86.34" y="0">TE</tspan></tspan><tspan class="cls-8"><tspan x="0" y="39.6">$2</tspan><tspan class="cls-9" x="36.5" y="39.6">0</tspan><tspan x="55.97" y="39.6">,28</tspan><tspan class="cls-10" x="99.99" y="39.6">0</tspan><tspan class="cls-11" x="119.46" y="39.6">,</tspan><tspan x="126.85" y="39.6">756</tspan><tspan class="cls-12" x="179.88" y="39.6">	</tspan></tspan><tspan class="cls-13"><tspan x="0" y="74.6">66.8%</tspan></tspan></text><text class="cls-14" transform="translate(633.72 69.29)"><tspan class="cls-5">SMALL BUSINE<tspan class="cls-15" x="120.89" y="0">S</tspan><tspan class="cls-7" x="131.36" y="0">S</tspan></tspan><tspan class="cls-8"><tspan x="0" y="39.6">$1,6</tspan><tspan class="cls-16" x="54.65" y="39.6">0</tspan><tspan x="74.18" y="39.6">5</tspan><tspan class="cls-17" x="92.04" y="39.6">,</tspan><tspan class="cls-18" x="99.82" y="39.6">000</tspan></tspan><tspan class="cls-13"><tspan x="0" y="74.6">5.3%</tspan></tspan></text><text class="cls-19" transform="translate(595.56 341.32)"><tspan class="cls-5">COMMERCIAL &amp; INDUSTRIAL</tspan><tspan class="cls-8"><tspan x="0" y="39.6">$2,65</tspan><tspan class="cls-20" x="80.68" y="39.6">9</tspan><tspan x="99.23" y="39.6">,250</tspan></tspan><tspan class="cls-13"><tspan x="0" y="74.6">8.8%</tspan></tspan></text><text class="cls-21" transform="translate(210.93 385.6)"><tspan class="cls-7">VENTURE INVESTMEN<tspan class="cls-22" x="175.91" y="0">T</tspan><tspan class="cls-5" x="185.56" y="0">S</tspan></tspan><tspan class="cls-8"><tspan x="0" y="39.6">$5,81</tspan><tspan class="cls-9" x="72.76" y="39.6">0</tspan><tspan x="92.23" y="39.6">,231</tspan></tspan><tspan class="cls-13"><tspan x="0" y="74.6">19.1%</tspan></tspan></text><circle class="cls-23" cx="450" cy="191.17" r="157.74" transform="translate(-3.38 374.19) rotate(-45)"/><path class="cls-24" d="M447.2,191.22l100.15,87c-36.53,42-93.18,56.7-145.52,37.66Z"/><path class="cls-25" d="M447.2,191.22,578.26,212c-4.12,26.06-13.6,46.39-30.91,66.3Z"/><path class="cls-26" d="M447.2,191.22l131.05-20.78a126,126,0,0,1,0,41.51Z"/><path class="cls-27" d="M447.2,191.22,401.83,315.91A132.69,132.69,0,1,1,492.56,66.52c46.83,17,77.89,54.7,85.69,103.92Z"/><circle class="cls-28" cx="450.15" cy="191.28" r="108.51"/></svg>